<svg width="176" height="39" viewBox="0 0 176 39" fill="none" xmlns="http://www.w3.org/2000/svg">
<path d="M57.9845 21.9545V33H50.9277V13.3636H57.6265V17.0966H57.8311C58.2572 15.8523 59.0072 14.8764 60.0811 14.169C61.1635 13.4616 62.4248 13.108 63.8652 13.108C65.2544 13.108 66.4603 13.4276 67.4831 14.0668C68.5143 14.6974 69.3112 15.5668 69.8737 16.6747C70.4447 17.7827 70.726 19.0483 70.7174 20.4716V33H63.6606V21.9545C63.6691 20.983 63.422 20.2202 62.9191 19.6662C62.4248 19.1122 61.7345 18.8352 60.8481 18.8352C60.2686 18.8352 59.7615 18.9631 59.3268 19.2188C58.9007 19.4659 58.5725 19.8239 58.3424 20.2926C58.1123 20.7528 57.993 21.3068 57.9845 21.9545ZM81.8613 33.358C79.7306 33.358 77.9068 32.9361 76.3897 32.0923C74.8727 31.2401 73.7093 30.0554 72.8997 28.5384C72.09 27.0128 71.6852 25.2443 71.6852 23.233C71.6852 21.2216 72.09 19.4574 72.8997 17.9403C73.7093 16.4148 74.8727 15.2301 76.3897 14.3864C77.9068 13.5341 79.7306 13.108 81.8613 13.108C83.992 13.108 85.8159 13.5341 87.3329 14.3864C88.85 15.2301 90.0133 16.4148 90.823 17.9403C91.6326 19.4574 92.0375 21.2216 92.0375 23.233C92.0375 25.2443 91.6326 27.0128 90.823 28.5384C90.0133 30.0554 88.85 31.2401 87.3329 32.0923C85.8159 32.9361 83.992 33.358 81.8613 33.358ZM81.9125 28.142C82.5091 28.142 83.0247 27.9418 83.4593 27.5412C83.894 27.1406 84.2306 26.5696 84.4693 25.8281C84.7079 25.0866 84.8272 24.2045 84.8272 23.1818C84.8272 22.1506 84.7079 21.2685 84.4693 20.5355C84.2306 19.794 83.894 19.223 83.4593 18.8224C83.0247 18.4219 82.5091 18.2216 81.9125 18.2216C81.2818 18.2216 80.7406 18.4219 80.2889 18.8224C79.8372 19.223 79.492 19.794 79.2534 20.5355C79.0147 21.2685 78.8954 22.1506 78.8954 23.1818C78.8954 24.2045 79.0147 25.0866 79.2534 25.8281C79.492 26.5696 79.8372 27.1406 80.2889 27.5412C80.7406 27.9418 81.2818 28.142 81.9125 28.142ZM104.811 13.3636V18.4773H91.8738V13.3636H104.811ZM94.3795 8.65909H101.436V26.6847C101.436 26.9574 101.483 27.1875 101.577 27.375C101.671 27.554 101.816 27.6903 102.012 27.7841C102.208 27.8693 102.459 27.9119 102.766 27.9119C102.979 27.9119 103.226 27.8864 103.507 27.8352C103.797 27.7841 104.01 27.7415 104.147 27.7074L105.169 32.6676C104.854 32.7614 104.402 32.8764 103.814 33.0128C103.235 33.1491 102.544 33.2386 101.743 33.2812C100.124 33.3665 98.7645 33.2003 97.665 32.7827C96.5656 32.3565 95.7389 31.6875 95.1849 30.7756C94.6309 29.8636 94.3625 28.7216 94.3795 27.3494V8.65909ZM115.089 33.358C112.993 33.358 111.186 32.9574 109.669 32.1562C108.16 31.3466 106.997 30.1875 106.179 28.679C105.369 27.1619 104.964 25.3466 104.964 23.233C104.964 21.2045 105.373 19.4318 106.191 17.9148C107.01 16.3977 108.164 15.2173 109.656 14.3736C111.147 13.5298 112.907 13.108 114.936 13.108C116.419 13.108 117.761 13.3381 118.963 13.7983C120.164 14.2585 121.191 14.9276 122.044 15.8054C122.896 16.6747 123.552 17.7315 124.012 18.9759C124.473 20.2202 124.703 21.6222 124.703 23.1818V24.8182H107.163V20.9318H118.208C118.2 20.3693 118.055 19.875 117.774 19.4489C117.501 19.0142 117.13 18.6776 116.662 18.4389C116.201 18.1918 115.677 18.0682 115.089 18.0682C114.518 18.0682 113.994 18.1918 113.517 18.4389C113.039 18.6776 112.656 19.0099 112.366 19.4361C112.085 19.8622 111.936 20.3608 111.919 20.9318V25.125C111.919 25.7557 112.051 26.3182 112.315 26.8125C112.579 27.3068 112.958 27.6946 113.453 27.9759C113.947 28.2571 114.544 28.3977 115.243 28.3977C115.728 28.3977 116.171 28.3295 116.572 28.1932C116.981 28.0568 117.331 27.8608 117.62 27.6051C117.91 27.3409 118.123 27.0256 118.26 26.6591H124.703C124.481 28.0227 123.957 29.2074 123.13 30.2131C122.304 31.2102 121.208 31.9858 119.845 32.5398C118.49 33.0852 116.904 33.358 115.089 33.358Z" fill="#947DEE"/>
<path d="M137.544 13.3636V18.4773H124.402V13.3636H137.544ZM126.907 33V12.8011C126.907 11.1818 127.197 9.83949 127.777 8.77415C128.356 7.70881 129.174 6.91193 130.231 6.38352C131.288 5.85511 132.532 5.59091 133.964 5.59091C134.859 5.59091 135.728 5.65909 136.572 5.79545C137.424 5.93182 138.055 6.05114 138.464 6.15341L137.441 11.2159C137.186 11.1392 136.887 11.0795 136.547 11.0369C136.206 10.9858 135.907 10.9602 135.652 10.9602C134.987 10.9602 134.539 11.1009 134.309 11.3821C134.079 11.6634 133.964 12.0341 133.964 12.4943V33H126.907ZM145.524 6.81818V33H138.467V6.81818H145.524ZM147.319 33V13.3636H154.376V33H147.319ZM150.847 11.3182C149.893 11.3182 149.075 11.0028 148.393 10.3722C147.711 9.74148 147.37 8.98295 147.37 8.09659C147.37 7.21023 147.711 6.4517 148.393 5.82102C149.075 5.19034 149.893 4.875 150.847 4.875C151.811 4.875 152.629 5.19034 153.302 5.82102C153.984 6.4517 154.325 7.21023 154.325 8.09659C154.325 8.98295 153.984 9.74148 153.302 10.3722C152.629 11.0028 151.811 11.3182 150.847 11.3182ZM162.257 13.3636L165.12 19.4489L168.137 13.3636H175.143L169.876 23.1818L175.399 33H168.444L165.12 26.7614L161.899 33H154.842L160.416 23.1818L155.2 13.3636H162.257Z" fill="#F3F3F3"/>
<rect width="7.57941" height="38.9929" rx="3.78971" transform="matrix(0.8068 -0.590825 0.513382 0.85816 12.8667 5.53784)" fill="#F3F3F3"/>
<rect width="20.9521" height="38.4809" rx="3" fill="#947DEE"/>
<rect x="30.9539" width="7.33322" height="38.4809" rx="3.66661" fill="#F3F3F3"/>
<rect x="20.9521" y="0.231812" width="2.30473" height="38.4809" rx="1.15236" fill="#282828"/>
<path d="M0 9.50427L0 6.95434L12.7629 6.95434C13.4671 6.95434 14.0379 7.52516 14.0379 8.2293C14.0379 8.93345 13.4671 9.50427 12.7629 9.50427L0 9.50427Z" fill="#282828"/>
<path d="M0 21.5586L0 19.0087L16.3248 19.0087C17.0289 19.0087 17.5997 19.5795 17.5997 20.2836C17.5997 20.9878 17.0289 21.5586 16.3248 21.5586L0 21.5586Z" fill="#282828"/>
<path d="M0 33.6128L0 31.0629L16.3248 31.0629C17.0289 31.0629 17.5997 31.6337 17.5997 32.3378C17.5997 33.042 17.0289 33.6128 16.3248 33.6128L0 33.6128Z" fill="#282828"/>
<rect x="15.2949" y="9.50427" width="2.54994" height="2.30473" rx="1.15236" transform="rotate(-90 15.2949 9.50427)" fill="#282828"/>
<rect x="10.4761" y="15.5315" width="2.54994" height="7.1237" rx="1.27497" transform="rotate(-90 10.4761 15.5315)" fill="#282828"/>
<path d="M0 15.5314L0 12.9814L7.94394 12.9814C8.64808 12.9814 9.21891 13.5523 9.21891 14.2564C9.21891 14.9605 8.64808 15.5314 7.94394 15.5314L0 15.5314Z" fill="#282828"/>
<path d="M0 27.5857L0 25.0358H2.4964C3.20055 25.0358 3.77137 25.6066 3.77137 26.3107C3.77137 27.0149 3.20055 27.5857 2.4964 27.5857H0Z" fill="#282828"/>
<rect x="4.81909" y="27.5857" width="2.54994" height="12.7808" rx="1.27497" transform="rotate(-90 4.81909 27.5857)" fill="#282828"/>
</svg>
