<svg width="421" height="391" viewBox="0 0 421 391" fill="none" xmlns="http://www.w3.org/2000/svg">
<path d="M333.057 23.7672C280.564 -6.20947 234.074 18.4691 210.818 44.7477C187.562 71.0263 170.235 97.5698 141.04 102.444C111.846 107.318 67.5508 94.9525 34.5495 118.179C1.54819 141.406 1.67544 203.097 27.805 238.075C53.9346 273.054 121.538 289.774 199.535 301.017C227.521 305.253 256.082 303.669 283.427 296.365L318.857 283.512C336.164 275.618 350.671 266.728 362.951 259.512C381.636 248.492 388.221 221.63 391.795 201.953C396.983 172.466 396.533 142.264 390.469 112.945C382.643 76.0065 364.796 41.8761 333.057 23.7672Z" fill="#EFEBFD"/>
<path d="M70.7853 17.081C69.4836 15.9189 67.8943 15.1262 66.1824 14.7852C64.4705 14.4442 62.6985 14.5674 61.0503 15.1419C55.2178 17.081 49.6292 25.505 51.0396 32.6362C52.0258 37.5741 56.607 44.8537 57.9962 47.6299C59.3854 50.4061 57.4342 55.1002 53.0227 64.8487C48.6112 74.5972 46.9039 83.7418 59.6929 91.7949C72.482 99.848 86.9572 87.069 94.3804 77.9032C101.804 68.7375 88.813 47.6299 87.6995 38.6973C86.586 29.7647 84.6772 12.6412 70.7853 17.081Z" fill="#263238"/>
<path d="M100.849 78.5179C97.667 81.6993 93.822 84.1406 89.588 85.6681C85.354 87.1955 80.835 87.7716 76.3528 87.3552L73.2881 100.124L79.1206 129.274L117.201 109.554L108.58 87.3022L100.849 78.5179Z" fill="#623FF0" stroke="#263238" stroke-linecap="round" stroke-linejoin="round"/>
<path opacity="0.3" d="M100.849 78.5179C97.667 81.6993 93.822 84.1406 89.588 85.6681C85.354 87.1955 80.835 87.7716 76.3528 87.3552L73.2881 100.124L79.1206 129.274L117.201 109.554L108.58 87.3022L100.849 78.5179Z" fill="#263238"/>
<path d="M100.849 78.5181L95.0165 39.9055L77.7311 43.4446L69.1096 48.9971C69.1096 48.9971 58.8232 57.0608 58.8232 57.8873C58.8232 58.7138 76.2253 87.811 76.2253 87.811C80.7528 88.0786 85.2859 87.3894 89.5288 85.7881C93.7717 84.1869 97.629 81.7097 100.849 78.5181Z" fill="white"/>
<path d="M100.849 78.5181L95.0165 39.9055L77.7311 43.4446L69.1096 48.9971C69.1096 48.9971 58.8232 57.0608 58.8232 57.8873C58.8232 58.7138 76.2253 87.811 76.2253 87.811C80.7528 88.0786 85.2859 87.3894 89.5288 85.7881C93.7717 84.1869 97.629 81.7097 100.849 78.5181Z" stroke="#263238" stroke-linecap="round" stroke-linejoin="round"/>
<path opacity="0.5" d="M77.657 76.8647C77.657 76.8647 89.8417 67.8367 88.7176 70.5069C87.5935 73.1772 79.1735 79.8422 76.9147 80.0435C74.656 80.2448 77.657 76.8647 77.657 76.8647Z" fill="#623FF0"/>
<path d="M78.0283 59.72L78.5055 60.218L81.4748 63.3545L82.2383 75.4024L85.8757 74.8302L83.0018 63.5452L87.6042 73.103L91.4324 69.2778L83.2033 61.8181L83.0018 55.8948L78.7918 53.7861" fill="#263238"/>
<path d="M71.3369 45.4151C71.3369 45.4151 67.7207 47.0787 67.7207 50.4059C67.7207 53.7331 71.6338 61.6485 74.0834 63.3121C76.5331 64.9757 80.7325 57.357 80.7325 57.357C80.7325 57.357 87.0952 60.4087 88.7919 57.6325C90.4886 54.8563 84.9 45.6906 81.2945 43.1899C77.689 40.6892 71.3369 45.4151 71.3369 45.4151Z" fill="white" stroke="#263238" stroke-linecap="round" stroke-linejoin="round"/>
<path d="M68.2827 42.0773C69.277 44.6156 70.1128 47.2132 70.7854 49.8549C71.3368 52.6311 78.8448 57.357 79.672 57.6325C80.4991 57.908 81.0612 48.7423 81.0612 48.7423L78.8448 37.913L68.2827 42.0773Z" fill="white"/>
<g style="mix-blend-mode:multiply" opacity="0.5">
<path d="M79.078 39.0682C78.6115 38.9375 78.1367 38.8383 77.6569 38.7715L69.9899 41.4735L68.9824 44.1014C69.4914 45.5213 70.1383 47.4286 70.5307 48.9756C71.7877 49.9883 73.3063 50.6239 74.9104 50.8088C77.2115 50.9677 79.237 49.1876 80.6686 47.0047L79.078 39.0682Z" fill="#623FF0"/>
</g>
<path d="M68.2827 42.0773C69.277 44.6156 70.1128 47.2132 70.7854 49.8549C71.3368 52.6311 78.8448 57.357 79.672 57.6325C80.4991 57.908 81.0612 48.7423 81.0612 48.7423L78.8448 37.913L68.2827 42.0773Z" stroke="#263238" stroke-linecap="round" stroke-linejoin="round"/>
<path d="M63.2771 37.3516C63.2771 37.3516 60.2124 34.8615 60.2124 37.3516C60.2124 39.8417 63.0014 41.2404 65.2177 41.2404" fill="white"/>
<path d="M63.2771 37.3516C63.2771 37.3516 60.2124 34.8615 60.2124 37.3516C60.2124 39.8417 63.0014 41.2404 65.2177 41.2404" stroke="#263238" stroke-linecap="round" stroke-linejoin="round"/>
<path d="M79.6719 29.2984C79.6719 29.2984 81.6231 26.2467 82.1745 29.5845C82.4286 31.7574 81.832 33.9444 80.5096 35.6879L79.6719 29.2984Z" fill="white" stroke="#263238" stroke-linecap="round" stroke-linejoin="round"/>
<g opacity="0.5">
<path d="M63.2771 37.3516C63.2771 37.3516 60.2124 34.8615 60.2124 37.3516C60.2124 39.8417 63.0014 41.2404 65.2177 41.2404" fill="#623FF0"/>
<path d="M63.2771 37.3516C63.2771 37.3516 60.2124 34.8615 60.2124 37.3516C60.2124 39.8417 63.0014 41.2404 65.2177 41.2404" stroke="#263238" stroke-linecap="round" stroke-linejoin="round"/>
</g>
<path opacity="0.5" d="M79.6719 29.2984C79.6719 29.2984 81.6231 26.2467 82.1745 29.5845C82.4286 31.7574 81.832 33.9444 80.5096 35.6879L79.6719 29.2984Z" fill="#623FF0" stroke="#263238" stroke-linecap="round" stroke-linejoin="round"/>
<path d="M59.8311 29.3196C59.8311 29.3196 62.2171 39.2483 67.3391 44.1543C72.4611 49.0604 77.9436 49.1027 79.8418 40.3609C81.4007 33.1555 77.53 23.5447 77.53 23.5447C77.53 23.5447 65.0379 13.2664 59.8311 29.3196Z" fill="white"/>
<g style="mix-blend-mode:multiply" opacity="0.5">
<path d="M68.728 20.3128L70.6687 25.187C70.6687 25.187 73.7228 24.5089 75.4407 28.1964C77.1586 31.8838 78.8872 37.2879 77.901 41.4734C76.9572 45.4576 74.7196 46.7715 71.2731 46.8669C75.0271 48.4669 78.4312 46.8669 79.8416 40.3396C81.4005 33.1342 77.5298 23.5234 77.5298 23.5234C77.5298 23.5234 73.2986 20.0585 68.728 20.3128Z" fill="#623FF0"/>
</g>
<path d="M59.8311 29.3196C59.8311 29.3196 62.2171 39.2483 67.3391 44.1543C72.4611 49.0604 77.9436 49.1027 79.8418 40.3609C81.4007 33.1555 77.53 23.5447 77.53 23.5447C77.53 23.5447 65.0379 13.2664 59.8311 29.3196Z" stroke="#263238" stroke-linecap="round" stroke-linejoin="round"/>
<path d="M69.3113 34.5649C69.6082 35.1265 69.5552 35.7304 69.1946 35.9212C68.8341 36.1119 68.3038 35.8046 68.0175 35.243C67.7312 34.6814 67.7736 34.088 68.1342 33.8973C68.4947 33.7066 69.0249 34.0139 69.3113 34.5649Z" fill="#263238"/>
<path d="M74.8468 32.8482C75.0589 33.4416 74.921 34.035 74.5393 34.1621C74.1575 34.2893 73.6697 33.929 73.4788 33.3356C73.288 32.7422 73.4046 32.1488 73.7864 32.0217C74.1681 31.8945 74.6347 32.276 74.8468 32.8482Z" fill="#263238"/>
<path d="M75.2284 29.6695C74.7953 29.3787 74.2786 29.2378 73.7576 29.2684C73.2366 29.299 72.7401 29.4995 72.344 29.839C70.8169 31.0258 73.7014 36.9703 73.7014 36.9703C73.7014 36.9703 73.7544 38.8458 71.3472 37.9769" stroke="#263238" stroke-width="0.5" stroke-linecap="round" stroke-linejoin="round"/>
<path d="M75.2286 39.9055C75.0635 40.2957 74.8098 40.6423 74.4876 40.9177C74.1655 41.1932 73.7837 41.3901 73.3723 41.4929C72.961 41.5956 72.5313 41.6014 72.1173 41.5099C71.7033 41.4183 71.3163 41.2318 70.9868 40.9651" stroke="#263238" stroke-width="0.5" stroke-linecap="round" stroke-linejoin="round"/>
<path d="M68.7706 31.2482C68.7706 31.2482 66.0559 28.6945 64.8682 33.6218" stroke="#263238" stroke-width="0.5" stroke-linecap="round" stroke-linejoin="round"/>
<path d="M77.6888 20.3978C74.709 17.8123 72.3017 17.8441 71.2519 18.1832C70.2692 17.5705 69.1516 17.2068 67.9963 17.1236C59.6611 16.011 58.5477 22.4217 58.5477 28.5145C58.5477 34.6073 53.2454 41.8445 56.8827 42.6816C57.8782 42.9203 58.926 42.8003 59.8416 42.3429C60.7572 41.8854 61.4819 41.1198 61.8881 40.1809C61.8881 40.1809 65.7799 33.8232 65.7799 29.341C65.7799 24.8588 70.6262 25.2827 70.6262 25.2827C70.8355 24.974 71.109 24.7143 71.4281 24.5211C71.7473 24.328 72.1044 24.2062 72.4751 24.1639C72.8458 24.1216 73.2212 24.1599 73.5757 24.2762C73.9301 24.3925 74.2552 24.584 74.5287 24.8376C76.7344 26.7238 76.9889 28.9384 78.7705 29.5106C80.5521 30.0828 83.5319 27.2218 83.5319 27.2218C81.8344 24.7446 79.8755 22.4568 77.6888 20.3978Z" fill="#263238"/>
<path d="M70.8596 22.0609C70.8596 22.0609 67.5085 19.3695 64.4968 22.3894C61.4851 25.4093 61.8139 31.1207 60.8064 34.8188C59.799 38.5168 57.1055 39.1844 57.1055 39.1844" stroke="white" stroke-width="0.5" stroke-linecap="round" stroke-linejoin="round"/>
<path d="M68.516 21.0545C68.516 21.0545 64.8999 17.473 60.3506 22.0082C56.8829 25.4837 58.4311 27.7619 57.7524 33.4733" stroke="white" stroke-width="0.5" stroke-linecap="round" stroke-linejoin="round"/>
<path d="M72.5459 20.3764C72.5459 20.3764 78.9086 17.3565 81.6234 25.0811" stroke="white" stroke-width="0.5" stroke-linecap="round" stroke-linejoin="round"/>
<path d="M58.8234 57.9082L49.2051 96.5843L77.4131 104.574L78.8023 99.5725L60.2762 91.0319L66.5647 68.7799C66.5647 68.7799 65.7375 64.6156 61.2624 59.9003" fill="white"/>
<g style="mix-blend-mode:multiply" opacity="0.5">
<path d="M78.8449 99.6044L60.3188 91.0639L66.6073 68.8119C66.1148 66.9646 65.3154 65.2131 64.2425 63.6303L63.638 63.1747V69.3205C63.638 73.2517 58.7175 85.787 56.989 88.7327C55.2604 91.6785 52.5669 95.366 52.5669 95.366L57.9752 92.9076L78.4738 101.109L78.8449 99.6044Z" fill="#623FF0"/>
</g>
<path d="M58.8234 57.9082L49.2051 96.5843L77.4131 104.574L78.8023 99.5725L60.2762 91.0319L66.5647 68.7799C66.5647 68.7799 65.7375 64.6156 61.2624 59.9003" stroke="#263238" stroke-linecap="round" stroke-linejoin="round"/>
<path d="M138.135 69.5217L116.777 65.0395L94.9639 39.8523L98.1876 60.1122L111.571 72.8489L138.464 74.078L138.135 69.5217Z" fill="white"/>
<g style="mix-blend-mode:multiply" opacity="0.5">
<path d="M94.9639 39.8523L97.562 56.0221L99.2163 61.0765L99.4284 61.2672C100.054 60.6209 103.585 56.9546 104.487 56.9546C105.388 56.9546 115.558 65.8024 114.084 66.4912L112.599 67.2223L137.933 71.3972L138.114 69.4581L116.799 64.9865L94.9639 39.8523Z" fill="#623FF0"/>
</g>
<path d="M138.135 69.5217L116.777 65.0395L94.9639 39.8523L98.1876 60.1122L111.571 72.8489L138.464 74.078L138.135 69.5217Z" stroke="#263238" stroke-linecap="round" stroke-linejoin="round"/>
<path d="M337.51 283.978L65.5359 244.158C64.6712 244.029 63.8929 243.563 63.3719 242.862C62.8509 242.161 62.6299 241.281 62.7575 240.417L85.4087 86.0199C85.471 85.5926 85.6171 85.1817 85.8385 84.8108C86.0599 84.4399 86.3523 84.1162 86.699 83.8584C87.0457 83.6005 87.4399 83.4135 87.859 83.308C88.2781 83.2026 88.714 83.1807 89.1415 83.2437L94.2954 83.9961C94.9482 84.094 95.6153 83.9926 96.2095 83.7052C96.8037 83.4178 97.2971 82.9578 97.6252 82.3855L104.465 70.5707C104.673 70.1997 104.954 69.8752 105.292 69.617C106.893 68.4601 108.883 67.9734 110.838 68.2607L179.397 78.3059C180.935 78.5266 182.367 79.2147 183.501 80.2768C183.803 80.5794 184.041 80.9398 184.201 81.3364L190.298 96.4254C190.512 96.9591 190.863 97.4272 191.315 97.7824C191.768 98.1377 192.306 98.3677 192.875 98.4493L361.116 123.096C361.981 123.222 362.76 123.685 363.283 124.385C363.806 125.084 364.029 125.962 363.905 126.826L341.254 281.213C341.123 282.075 340.655 282.85 339.954 283.368C339.252 283.886 338.374 284.106 337.51 283.978Z" fill="#263238" stroke="#263238" stroke-miterlimit="10"/>
<path d="M340.406 283.226H70.8279C70.0453 283.226 69.2703 283.072 68.5472 282.773C67.8241 282.473 67.1672 282.035 66.6137 281.482C66.0603 280.929 65.6213 280.272 65.3218 279.55C65.0223 278.827 64.8682 278.053 64.8682 277.271V126.55C64.8682 124.971 65.4961 123.456 66.6137 122.339C67.7314 121.223 69.2473 120.595 70.8279 120.595H71.5596C72.7528 120.593 73.9181 120.235 74.9062 119.566C75.8943 118.898 76.6602 117.95 77.1058 116.844L81.2098 106.534C81.6685 105.344 82.5071 104.339 83.5958 103.673C84.7652 102.983 86.0977 102.617 87.4558 102.614H156.746C157.677 102.613 158.601 102.781 159.471 103.112C160.681 103.599 161.69 104.48 162.334 105.612L169.386 117.618C169.912 118.514 170.663 119.258 171.565 119.775C172.468 120.292 173.49 120.564 174.53 120.564H340.406C341.986 120.564 343.502 121.191 344.62 122.308C345.738 123.424 346.366 124.939 346.366 126.519V277.271C346.366 278.053 346.211 278.827 345.912 279.55C345.612 280.272 345.173 280.929 344.62 281.482C344.067 282.035 343.41 282.473 342.686 282.773C341.963 283.072 341.188 283.226 340.406 283.226Z" fill="#623FF0"/>
<path opacity="0.1" d="M340.406 283.226H70.8279C70.0453 283.226 69.2703 283.072 68.5472 282.773C67.8241 282.473 67.1672 282.035 66.6137 281.482C66.0603 280.929 65.6213 280.272 65.3218 279.55C65.0223 278.827 64.8682 278.053 64.8682 277.271V126.55C64.8682 124.971 65.4961 123.456 66.6137 122.339C67.7314 121.223 69.2473 120.595 70.8279 120.595H71.5596C72.7528 120.593 73.9181 120.235 74.9062 119.566C75.8943 118.898 76.6602 117.95 77.1058 116.844L81.2098 106.534C81.6685 105.344 82.5071 104.339 83.5958 103.673C84.7652 102.983 86.0977 102.617 87.4558 102.614H156.746C157.677 102.613 158.601 102.781 159.471 103.112C160.681 103.599 161.69 104.48 162.334 105.612L169.386 117.618C169.912 118.514 170.663 119.258 171.565 119.775C172.468 120.292 173.49 120.564 174.53 120.564H340.406C341.986 120.564 343.502 121.191 344.62 122.308C345.738 123.424 346.366 124.939 346.366 126.519V277.271C346.366 278.053 346.211 278.827 345.912 279.55C345.612 280.272 345.173 280.929 344.62 281.482C344.067 282.035 343.41 282.473 342.686 282.773C341.963 283.072 341.188 283.226 340.406 283.226Z" fill="#263238"/>
<path d="M340.406 283.226H70.8279C70.0453 283.226 69.2703 283.072 68.5472 282.773C67.8241 282.473 67.1672 282.035 66.6137 281.482C66.0603 280.929 65.6213 280.272 65.3218 279.55C65.0223 278.827 64.8682 278.053 64.8682 277.271V126.55C64.8682 124.971 65.4961 123.456 66.6137 122.339C67.7314 121.223 69.2473 120.595 70.8279 120.595H71.5596C72.7528 120.593 73.9181 120.235 74.9062 119.566C75.8943 118.898 76.6602 117.95 77.1058 116.844L81.2098 106.534C81.6685 105.344 82.5071 104.339 83.5958 103.673C84.7652 102.983 86.0977 102.617 87.4558 102.614H156.746C157.677 102.613 158.601 102.781 159.471 103.112C160.681 103.599 161.69 104.48 162.334 105.612L169.386 117.618C169.912 118.514 170.663 119.258 171.565 119.775C172.468 120.292 173.49 120.564 174.53 120.564H340.406C341.986 120.564 343.502 121.191 344.62 122.308C345.738 123.424 346.366 124.939 346.366 126.519V277.271C346.366 278.053 346.211 278.827 345.912 279.55C345.612 280.272 345.173 280.929 344.62 281.482C344.067 282.035 343.41 282.473 342.687 282.773C341.963 283.072 341.188 283.226 340.406 283.226V283.226Z" stroke="#263238" stroke-miterlimit="10"/>
<path d="M141.041 120.087H97.9013C96.8719 120.087 95.8847 119.678 95.1568 118.951C94.429 118.224 94.02 117.237 94.02 116.209C94.0186 115.698 94.118 115.193 94.3124 114.721C94.5069 114.249 94.7925 113.821 95.1531 113.459C95.5136 113.098 95.942 112.811 96.4135 112.616C96.8851 112.42 97.3907 112.32 97.9013 112.32H141.041C142.073 112.32 143.063 112.729 143.793 113.459C144.522 114.188 144.932 115.177 144.932 116.209C144.932 116.719 144.832 117.224 144.636 117.695C144.44 118.166 144.153 118.594 143.792 118.955C143.43 119.315 143.001 119.6 142.529 119.795C142.057 119.989 141.551 120.088 141.041 120.087Z" fill="white"/>
<path d="M340.406 309.526H70.8279C69.2473 309.526 67.7314 308.898 66.6137 307.781C65.4961 306.665 64.8682 305.15 64.8682 303.571V152.85C64.8682 151.271 65.4961 149.756 66.6137 148.639C67.7314 147.523 69.2473 146.895 70.8279 146.895H71.5596C72.7531 146.894 73.9191 146.536 74.9074 145.868C75.8958 145.2 76.6614 144.251 77.1058 143.144L81.2098 132.845C81.6657 131.653 82.505 130.647 83.5958 129.984C84.7634 129.289 86.0971 128.923 87.4558 128.924H156.746C157.677 128.923 158.601 129.092 159.471 129.422C160.684 129.909 161.694 130.795 162.334 131.933L169.386 143.949C169.912 144.846 170.663 145.59 171.565 146.107C172.468 146.623 173.49 146.895 174.53 146.895H340.406C341.986 146.895 343.502 147.523 344.62 148.639C345.738 149.756 346.366 151.271 346.366 152.85V303.571C346.366 305.15 345.738 306.665 344.62 307.781C343.502 308.898 341.986 309.526 340.406 309.526Z" fill="#263238" stroke="#263238" stroke-miterlimit="10"/>
<path d="M161.709 89.0081L118.909 83.71C117.887 83.5802 116.957 83.0517 116.323 82.2398C115.69 81.4279 115.403 80.3984 115.526 79.3761C115.656 78.3533 116.186 77.4238 117.002 76.7919C117.817 76.16 118.85 75.8775 119.874 76.0065L162.663 81.3046C163.687 81.4317 164.618 81.9595 165.252 82.7721C165.886 83.5847 166.172 84.6157 166.046 85.6385C165.983 86.1445 165.821 86.6331 165.569 87.0764C165.317 87.5197 164.98 87.909 164.577 88.222C164.174 88.535 163.713 88.7655 163.221 88.9004C162.729 89.0353 162.215 89.0719 161.709 89.0081Z" fill="#623FF0"/>
<path opacity="0.5" d="M161.709 89.0081L118.909 83.71C117.887 83.5802 116.957 83.0517 116.323 82.2398C115.69 81.4279 115.403 80.3984 115.526 79.3761C115.656 78.3533 116.186 77.4238 117.002 76.7919C117.817 76.16 118.85 75.8775 119.874 76.0065L162.663 81.3046C163.687 81.4317 164.618 81.9595 165.252 82.7721C165.886 83.5847 166.172 84.6157 166.046 85.6385C165.983 86.1445 165.821 86.6331 165.569 87.0764C165.317 87.5197 164.98 87.909 164.577 88.222C164.174 88.535 163.713 88.7655 163.221 88.9004C162.729 89.0353 162.215 89.0719 161.709 89.0081Z" fill="white"/>
<path d="M141.041 146.397H97.9013C97.3907 146.397 96.8851 146.296 96.4135 146.101C95.942 145.905 95.5136 145.619 95.1531 145.257C94.7925 144.896 94.5069 144.467 94.3124 143.996C94.118 143.524 94.0186 143.018 94.02 142.508C94.02 141.479 94.4286 140.491 95.1562 139.762C95.8838 139.033 96.8709 138.622 97.9013 138.619H141.041C142.073 138.619 143.063 139.029 143.792 139.758C144.522 140.488 144.932 141.477 144.932 142.508C144.932 143.54 144.522 144.529 143.792 145.258C143.063 145.987 142.073 146.397 141.041 146.397Z" fill="#623FF0"/>
<path opacity="0.5" d="M141.041 146.397H97.9013C97.3907 146.397 96.8851 146.296 96.4135 146.101C95.942 145.905 95.5136 145.619 95.1531 145.257C94.7925 144.896 94.5069 144.467 94.3124 143.996C94.118 143.524 94.0186 143.018 94.02 142.508C94.02 141.479 94.4286 140.491 95.1562 139.762C95.8838 139.033 96.8709 138.622 97.9013 138.619H141.041C142.073 138.619 143.063 139.029 143.792 139.758C144.522 140.488 144.932 141.477 144.932 142.508C144.932 143.54 144.522 144.529 143.792 145.258C143.063 145.987 142.073 146.397 141.041 146.397Z" fill="white"/>
<path d="M349.218 192.226H62.0046C58.9181 192.226 56.416 194.726 56.416 197.81V371.471C56.416 374.555 58.9181 377.056 62.0046 377.056H349.218C352.304 377.056 354.806 374.555 354.806 371.471V197.81C354.806 194.726 352.304 192.226 349.218 192.226Z" fill="white"/>
<g style="mix-blend-mode:multiply">
<path d="M354.807 241.975C321.731 272.863 284.151 298.552 243.353 318.162C183.066 346.973 114.158 366.83 74.0093 377.055H349.208C349.942 377.057 350.67 376.913 351.35 376.633C352.029 376.353 352.646 375.942 353.166 375.423C353.686 374.905 354.099 374.289 354.38 373.61C354.662 372.932 354.807 372.205 354.807 371.471V241.975Z" fill="#623FF0"/>
</g>
<path opacity="0.2" d="M354.807 241.975C321.731 272.863 284.151 298.552 243.353 318.162C183.066 346.973 114.158 366.83 74.0093 377.055H349.208C349.942 377.057 350.67 376.913 351.35 376.633C352.029 376.353 352.646 375.942 353.166 375.423C353.686 374.905 354.099 374.289 354.38 373.61C354.662 372.932 354.807 372.205 354.807 371.471V241.975Z" fill="white"/>
<path d="M349.218 192.226H62.0046C58.9181 192.226 56.416 194.726 56.416 197.81V371.471C56.416 374.555 58.9181 377.056 62.0046 377.056H349.218C352.304 377.056 354.806 374.555 354.806 371.471V197.81C354.806 194.726 352.304 192.226 349.218 192.226Z" stroke="#263238" stroke-miterlimit="10"/>
<path d="M60.7324 208.459V201.042C60.7352 199.56 61.3264 198.139 62.3761 197.092C63.4259 196.046 64.8485 195.458 66.3316 195.458H78.4738" stroke="#263238" stroke-miterlimit="10"/>
<path d="M60.7324 321.107V217.497" stroke="#263238" stroke-miterlimit="10"/>
<path d="M350.48 356.456V368.186C350.482 368.921 350.338 369.648 350.058 370.327C349.778 371.005 349.366 371.622 348.847 372.142C348.328 372.661 347.711 373.074 347.033 373.355C346.354 373.636 345.626 373.781 344.892 373.781H335.104" stroke="#263238" stroke-miterlimit="10"/>
<path d="M350.48 205.852V347.736" stroke="#263238" stroke-miterlimit="10"/>
<path d="M249.97 259.808H161.242C159.643 259.808 158.347 261.103 158.347 262.701V307.936C158.347 309.534 159.643 310.829 161.242 310.829H249.97C251.569 310.829 252.865 309.534 252.865 307.936V262.701C252.865 261.103 251.569 259.808 249.97 259.808Z" fill="#263238" stroke="#263238" stroke-miterlimit="10"/>
<path d="M249.97 259.808H161.242C159.643 259.808 158.347 261.103 158.347 262.701V272.428C158.347 274.026 159.643 275.321 161.242 275.321H249.97C251.569 275.321 252.865 274.026 252.865 272.428V262.701C252.865 261.103 251.569 259.808 249.97 259.808Z" fill="white" stroke="#263238" stroke-miterlimit="10"/>
<path d="M77.4131 104.574L79.3537 108.187L83.4789 111.154C83.7382 111.344 84.0489 111.452 84.3704 111.464C84.692 111.475 85.0095 111.389 85.2816 111.218L85.6422 110.984C85.9044 110.825 86.0997 110.576 86.1914 110.284C86.2832 109.991 86.2651 109.675 86.1406 109.395L83.797 104.012L85.3771 105.241C85.6279 105.435 85.9441 105.523 86.2588 105.487C86.5735 105.451 86.862 105.295 87.0632 105.051C87.2379 104.833 87.3331 104.562 87.3331 104.282C87.3331 104.003 87.2379 103.732 87.0632 103.514L83.3834 98.8624L78.7811 99.5724L77.4131 104.574Z" fill="white" stroke="#263238" stroke-miterlimit="10"/>
<path d="M85.6845 110.985L81.9941 106.142" stroke="#263238" stroke-width="0.5" stroke-linecap="round" stroke-linejoin="round"/>
<path d="M83.5215 111.154L80.6265 107.318" stroke="#263238" stroke-width="0.5" stroke-linecap="round" stroke-linejoin="round"/>
<path d="M138.135 69.5216L143.904 69.8607L150.924 74.3429C150.924 74.3429 151.316 75.7098 150.341 75.9005C149.365 76.0913 144.095 74.1521 144.095 74.1521L138.464 74.078L138.135 69.5216Z" fill="white" stroke="#263238" stroke-miterlimit="10"/>
<path d="M138.432 73.3681L144.487 76.1019C144.487 76.1019 145.462 74.735 144.094 74.1522L142.101 72.7853" fill="white"/>
<path d="M138.432 73.3681L144.487 76.1019C144.487 76.1019 145.462 74.735 144.094 74.1522L142.101 72.7853" stroke="#263238" stroke-linejoin="round"/>
</svg>
