<svg width="577" height="556" viewBox="0 0 577 556" fill="none" xmlns="http://www.w3.org/2000/svg">
<path d="M184.959 19.6846C161.554 27.2136 139.149 37.5525 118.237 50.4747C99.5585 62.2537 82.5419 76.4777 67.6399 92.768C-7.215 174.744 -24.091 304.172 38.017 398.214C72.2695 450.089 139.852 503.244 205.494 497.54C251.915 493.507 294.942 469.891 342.317 474.095C391.115 478.472 435.377 485.036 480.781 460.263C529.407 433.771 559.984 381.256 570.557 326.928C583.664 259.503 574.42 181.309 544.234 119.557C484.91 -1.71207 311.004 -21.8741 184.959 19.6846Z" fill="#623FF0"/>
<path opacity="0.8" d="M184.959 19.6846C161.554 27.2136 139.149 37.5525 118.237 50.4747C99.5585 62.2537 82.5419 76.4777 67.6399 92.768C-7.215 174.744 -24.091 304.172 38.017 398.214C72.2695 450.089 139.852 503.244 205.494 497.54C251.915 493.507 294.942 469.891 342.317 474.095C391.115 478.472 435.377 485.036 480.781 460.263C529.407 433.771 559.984 381.256 570.557 326.928C583.664 259.503 574.42 181.309 544.234 119.557C484.91 -1.71207 311.004 -21.8741 184.959 19.6846Z" fill="white"/>
<path opacity="0.28" d="M258.5 470.172L313.303 500.65L315.384 519.405L383.169 473.548L386.156 446.869L258.5 470.172Z" fill="black"/>
<path d="M320.873 491.147L258.5 470.172L325.534 434.647L386.156 446.869L320.873 491.147Z" fill="white"/>
<path opacity="0.15" d="M320.873 491.147L258.5 470.172L325.534 434.647L386.156 446.869L320.873 491.147Z" fill="black"/>
<path d="M320.873 491.147L258.5 470.172L325.534 434.647L386.156 446.869L320.873 491.147Z" stroke="#263238" stroke-linecap="round" stroke-linejoin="round"/>
<path d="M333.12 450.948L314.618 446.463L293.425 457.684L312.131 462.608L333.12 450.948Z" stroke="#263238" stroke-linecap="round" stroke-linejoin="round"/>
<path d="M344.772 445.134L290.562 474.252L321.202 484.739L371.689 450.511L344.772 445.134Z" fill="#263238"/>
<path d="M350.012 408.436L320.874 491.147L386.157 446.869L411.807 377.552L350.012 408.436Z" fill="white"/>
<path opacity="0.15" d="M350.012 408.436L320.874 491.147L386.157 446.869L411.807 377.552L350.012 408.436Z" fill="black"/>
<path d="M350.012 408.436L320.874 491.147L386.157 446.869L411.807 377.552L350.012 408.436Z" stroke="#263238" stroke-linecap="round" stroke-linejoin="round"/>
<path d="M139.867 492.804L179.156 548.804L242.14 525.719L198.8 477.221L139.867 492.804Z" fill="white" stroke="#263238" stroke-linecap="round" stroke-linejoin="round"/>
<path d="M228.267 477.8L284.306 524.563L206.886 555.165L160.09 495.695L228.267 477.8Z" fill="white" stroke="#263238" stroke-linecap="round" stroke-linejoin="round"/>
<path opacity="0.28" d="M554.259 383.335H336.029V388.915H554.259V383.335Z" fill="black"/>
<path d="M488.022 227.541H511.483L529.923 270.709H506.462L488.022 227.541Z" fill="#263238" stroke="#263238" stroke-linecap="round" stroke-linejoin="round"/>
<path d="M519.209 216.069H483.126L462.325 270.709H498.407L519.209 216.069Z" fill="white" stroke="#263238" stroke-linecap="round" stroke-linejoin="round"/>
<path d="M512.374 222.633H484.956L469.16 264.145H496.577L512.374 222.633Z" fill="white" stroke="#263238" stroke-linecap="round" stroke-linejoin="round"/>
<path d="M427.009 184.247C427.009 184.247 438.598 179.386 426.618 179.074C414.637 178.761 399.263 195.844 400.358 194.203C401.453 192.562 405.425 180.84 398.027 188.67C390.629 196.501 385.515 221.133 385.515 221.133C386.433 216.069 386.862 210.93 386.797 205.785C386.563 198.189 381.48 178.98 373.738 177.495C368.67 176.511 370.813 182.387 372.893 186.592C370.172 182.34 364.807 175.964 356.33 174.088C343.286 171.243 333.839 184.091 325.831 190.405C317.823 196.719 329.397 191.874 338.344 189.295C347.29 186.717 347.728 191.874 347.728 191.874C347.728 191.874 336.044 190.843 335.919 196.219C335.794 201.596 360.944 189.327 367.435 204.956C373.925 220.586 374.739 239.263 374.739 239.263L383.012 236.387C384.085 234.33 384.97 232.18 385.656 229.963C386.328 227.306 395.321 224.727 402.172 221.273C409.022 217.819 398.324 216.366 399.842 215.725C401.359 215.084 416.28 215.365 423.302 213.631C430.325 211.896 410.368 205.409 410.368 205.409C410.368 205.409 446.34 212.239 446.34 203.409C446.34 194.578 427.009 184.247 427.009 184.247Z" fill="#623FF0"/>
<path d="M366.918 202.893C359.27 196.891 360.365 205.081 360.365 205.081C354.645 202.257 348.238 201.118 341.894 201.799C330.946 202.893 334.246 205.081 334.246 205.081C334.246 205.081 329.866 203.44 322.218 213.271C314.57 223.102 315.665 230.213 318.386 228.025C321.108 225.837 338.078 216.553 338.078 216.553C338.078 216.553 324.955 225.837 332.056 228.572C337.389 230.62 348.557 225.915 353.812 223.43C350.684 225.134 346.946 227.838 352.842 228.572C361.585 229.666 371.423 241.076 371.423 241.076L374.16 236.153C374.16 236.153 374.629 208.91 366.918 202.893Z" fill="#623FF0"/>
<path d="M389.769 271.194H362.211L358.77 234.59H393.21L389.769 271.194Z" fill="#263238" stroke="#263238" stroke-linecap="round" stroke-linejoin="round"/>
<path d="M346.429 387.071H342.066L339.876 293.653H348.619L346.429 387.071Z" fill="#263238" stroke="#263238" stroke-linecap="round" stroke-linejoin="round"/>
<path d="M547.08 387.071H542.701L540.511 293.653H549.27L547.08 387.071Z" fill="#263238" stroke="#263238" stroke-linecap="round" stroke-linejoin="round"/>
<path d="M552.539 273.976H336.592V300.749H377.398L380.056 301.296C393.179 304.031 402.469 312.237 423.255 311.127C434.626 310.533 441.054 307.001 444.573 303.906C448.092 307.032 454.52 310.533 465.891 311.127C486.661 312.221 495.967 304.031 509.09 301.296L511.749 300.749H552.539V273.976Z" fill="white" stroke="#263238" stroke-linecap="round" stroke-linejoin="round"/>
<path d="M552.539 273.976H336.592V280.29H552.539V273.976Z" fill="#263238" stroke="#263238" stroke-linecap="round" stroke-linejoin="round"/>
<path d="M559.28 270.037H329.476V275.898H559.28V270.037Z" fill="white" stroke="#263238" stroke-linecap="round" stroke-linejoin="round"/>
<path opacity="0.28" d="M172.774 459.31C243.925 459.31 301.604 442.691 301.604 422.19C301.604 401.689 243.925 385.07 172.774 385.07C101.623 385.07 43.9443 401.689 43.9443 422.19C43.9443 442.691 101.623 459.31 172.774 459.31Z" fill="black"/>
<path d="M331.368 363.58C331.368 363.58 323.782 351.92 299.884 354.843C275.985 357.765 224.685 367.628 204.258 371.144C183.832 374.661 152.395 397.324 145.404 411.921C138.412 426.519 143.652 435.225 187.961 437.554C232.27 439.883 293.409 403.763 312.709 392.635C332.009 381.507 330.195 369.394 331.368 363.58Z" fill="#263238" stroke="#263238" stroke-linecap="round" stroke-linejoin="round"/>
<path d="M211.75 199.658C211.75 199.658 199.363 223.493 194.78 228.088C192.341 230.759 189.358 232.877 186.032 234.301C182.706 235.724 179.113 236.42 175.495 236.34C166.33 236.34 133.689 231.995 122.678 253.095C111.667 274.195 108.961 336.759 109.43 340.432C109.9 344.105 81.4341 368.409 82.3569 398.261C83.2797 428.114 114.936 445.025 159.448 438.617C203.961 432.209 215.425 399.168 215.425 379.912C215.425 360.657 225.06 350.107 235.617 329.898C246.174 309.689 261.768 288.636 256.716 270.741C251.664 252.845 232.411 244.593 225.983 242.295C219.554 239.997 237.916 218.851 233.318 208.363C228.72 197.876 219.554 193.687 211.75 199.658Z" fill="#623FF0"/>
<path opacity="0.13" d="M210.264 332.149C190.73 339.385 174.589 332.633 153.114 326.366C131.64 320.098 140.805 304.672 140.805 288.777C140.805 272.882 122.037 294.56 122.037 294.56L111.542 305.594C110.239 317.163 109.545 328.791 109.462 340.432C109.869 343.715 87.1745 363.486 83.0298 388.884C93.5732 390.11 104.181 390.7 114.795 390.65C158.933 390.65 211.656 368.003 216.802 357.39C221.635 347.403 229.533 323.006 230.456 320.083C229.956 321.302 227.093 325.913 210.264 332.149Z" fill="black"/>
<path d="M211.75 199.658C211.75 199.658 199.363 223.493 194.78 228.088C192.341 230.759 189.358 232.877 186.032 234.301C182.706 235.724 179.113 236.42 175.495 236.34C166.33 236.34 133.689 231.995 122.678 253.095C111.667 274.195 108.961 336.759 109.43 340.432C109.9 344.105 81.4341 368.409 82.3569 398.261C83.2797 428.114 114.936 445.025 159.448 438.617C203.961 432.209 215.425 399.168 215.425 379.912C215.425 360.657 225.06 350.107 235.617 329.898C246.174 309.689 261.768 288.636 256.716 270.741C251.664 252.845 232.411 244.593 225.983 242.295C219.554 239.997 237.916 218.851 233.318 208.363C228.72 197.876 219.554 193.687 211.75 199.658Z" stroke="#263238" stroke-linecap="round" stroke-linejoin="round"/>
<path d="M242.499 292.747C242.499 292.747 231.942 299.624 231.019 306.032C230.096 312.44 232.396 326.21 223.684 333.555C214.972 340.901 208.544 340.886 208.544 340.886" stroke="#263238" stroke-linecap="round" stroke-linejoin="round"/>
<path d="M130.311 315.457C130.311 315.457 130.311 331.993 150.049 333.258" stroke="#263238" stroke-linecap="round" stroke-linejoin="round"/>
<path d="M190.808 291.903C193.694 298.713 196.031 305.743 197.799 312.925" stroke="#263238" stroke-linecap="round" stroke-linejoin="round"/>
<path d="M216.098 371.566C218.429 357.156 226.687 346.966 235.617 329.883C237.025 327.179 238.542 324.459 240.075 321.724C231.723 324.991 230.346 322.865 230.346 322.865C226.389 332.086 221.103 335.603 221.103 335.603L206.729 375.13L216.098 371.566Z" fill="white" stroke="#263238" stroke-linecap="round" stroke-linejoin="round"/>
<path d="M87.7841 373.52C84.107 381.228 82.2502 389.676 82.3569 398.215C83.264 428.02 114.936 444.978 159.448 438.57C203.961 432.162 215.425 399.121 215.425 379.865C215.397 373.95 216.419 368.076 218.444 362.517C134.705 381.225 101.032 378.115 87.7841 373.52Z" fill="#263238" stroke="#263238" stroke-linecap="round" stroke-linejoin="round"/>
<path d="M183.817 338.963L172.352 313.956C172.266 313.769 172.144 313.601 171.992 313.462C171.841 313.322 171.664 313.214 171.471 313.143C171.081 312.999 170.649 313.016 170.272 313.19C169.895 313.364 169.602 313.681 169.458 314.071C169.314 314.461 169.331 314.892 169.506 315.269L180.986 340.182L183.817 338.963Z" fill="white" stroke="#263238" stroke-linecap="round" stroke-linejoin="round"/>
<path d="M180.985 340.26L183.754 342.542L183.816 338.963L180.985 340.26Z" stroke="#263238" stroke-linecap="round" stroke-linejoin="round"/>
<path d="M170.272 313.268C170.084 313.354 169.916 313.476 169.776 313.627C169.636 313.778 169.528 313.955 169.456 314.149C169.385 314.342 169.353 314.547 169.361 314.753C169.37 314.958 169.419 315.16 169.505 315.347L170.663 317.863L173.509 316.566L172.352 314.034C172.266 313.847 172.144 313.679 171.993 313.539C171.842 313.399 171.664 313.291 171.471 313.219C171.278 313.148 171.072 313.116 170.866 313.124C170.661 313.133 170.459 313.182 170.272 313.268V313.268Z" fill="white" stroke="#263238" stroke-linecap="round" stroke-linejoin="round"/>
<path d="M167.237 239.091C161.269 237.035 154.916 236.339 148.643 237.053C142.37 237.767 136.336 239.873 130.983 243.217C112.637 254.674 96.3239 288.73 89.4422 300.655C82.5604 312.581 59.7254 363.58 64.9649 364.736C67.6864 365.346 153.474 349.107 160.825 348.685C168.176 348.263 178.248 343.636 178.248 343.636C178.248 343.636 182.847 348.685 185.146 346.387C187.445 344.09 181.001 332.18 177.795 328.507C174.588 324.834 170.459 323.459 168.16 325.303C165.861 327.147 151.644 340.432 151.644 340.432L96.4334 338.526L142.01 278.977" fill="#623FF0"/>
<path opacity="0.13" d="M174.542 332.633C167.535 326.772 162.53 335.931 156.868 340.557C151.206 345.184 141.447 344.668 111.636 344.668C81.8253 344.668 80.7774 345.699 78.2124 347.231C75.6474 348.763 83.3581 325.663 102.377 304.078C121.396 282.494 133.22 264.536 133.22 250.657C133.22 246.187 131.656 244.405 129.575 244.124C111.777 256.377 96.105 289.043 89.3953 300.655C82.5135 312.581 59.6785 363.58 64.9181 364.736C67.6395 365.346 153.427 349.107 160.778 348.685C168.129 348.263 178.201 343.636 178.201 343.636C178.858 344.328 179.57 344.965 180.329 345.543C181.064 341.058 179.03 336.369 174.542 332.633Z" fill="black"/>
<path d="M167.237 239.091C161.269 237.035 154.916 236.339 148.643 237.053C142.37 237.767 136.336 239.873 130.983 243.217C112.637 254.674 96.3239 288.73 89.4422 300.655C82.5604 312.581 59.7254 363.58 64.9649 364.736C67.6864 365.346 153.474 349.107 160.825 348.685C168.176 348.263 178.248 343.636 178.248 343.636C178.248 343.636 182.847 348.685 185.146 346.387C187.445 344.09 181.001 332.18 177.795 328.507C174.588 324.834 170.459 323.459 168.16 325.303C165.861 327.147 151.644 340.432 151.644 340.432L96.4334 338.526L142.01 278.977" stroke="#263238" stroke-linecap="round" stroke-linejoin="round"/>
<path d="M178.248 343.636C178.248 343.636 182.847 348.685 185.146 346.387C187.445 344.09 181.001 332.18 177.795 328.507C174.589 324.834 170.46 323.459 168.16 325.303C165.861 327.147 151.644 340.432 151.644 340.432L96.4335 338.526L110.244 320.474C101.153 318.39 92.6551 314.269 85.3914 308.423C76.3043 326.835 60.5075 363.751 64.965 364.689C67.6865 365.299 153.474 349.06 160.825 348.638C168.176 348.216 178.248 343.636 178.248 343.636Z" fill="white"/>
<path d="M174.542 332.633C167.535 326.772 162.53 335.931 156.868 340.557C151.206 345.184 141.447 344.668 111.636 344.668C81.8254 344.668 80.7775 345.7 78.2125 347.231C76.0541 348.528 81.1685 332.368 94.197 314.409C91.0688 312.713 88.1052 310.73 85.3445 308.486C76.2575 326.897 60.4607 363.814 64.9182 364.752C67.6396 365.361 153.427 349.122 160.778 348.7C168.129 348.278 178.202 343.652 178.202 343.652C178.858 344.343 179.57 344.981 180.329 345.559C181.064 341.058 179.03 336.369 174.542 332.633Z" fill="#623FF0"/>
<path opacity="0.7" d="M174.542 332.633C167.535 326.772 162.53 335.931 156.868 340.557C151.206 345.184 141.447 344.668 111.636 344.668C81.8254 344.668 80.7775 345.7 78.2125 347.231C76.0541 348.528 81.1685 332.368 94.197 314.409C91.0688 312.713 88.1052 310.73 85.3445 308.486C76.2575 326.897 60.4607 363.814 64.9182 364.752C67.6396 365.361 153.427 349.122 160.778 348.7C168.129 348.278 178.202 343.652 178.202 343.652C178.858 344.343 179.57 344.981 180.329 345.559C181.064 341.058 179.03 336.369 174.542 332.633Z" fill="white"/>
<path d="M178.248 343.636C178.248 343.636 182.847 348.685 185.146 346.387C187.445 344.09 181.001 332.18 177.795 328.507C174.589 324.834 170.46 323.459 168.16 325.303C165.861 327.147 151.644 340.432 151.644 340.432L96.4335 338.526L110.244 320.474C101.153 318.39 92.6551 314.269 85.3914 308.423C76.3043 326.835 60.5075 363.751 64.965 364.689C67.6865 365.299 153.474 349.06 160.825 348.638C168.176 348.216 178.248 343.636 178.248 343.636Z" stroke="#263238" stroke-linecap="round" stroke-linejoin="round"/>
<path d="M175.496 340.432L138.334 377.568L197.064 384.914L229.643 356.937L175.496 340.432Z" fill="white"/>
<path opacity="0.36" d="M175.496 340.432L138.334 377.568L197.064 384.914L229.643 356.937L175.496 340.432Z" fill="black"/>
<path d="M175.496 340.432L138.334 377.568L197.064 384.914L229.643 356.937L175.496 340.432Z" stroke="#263238" stroke-linecap="round" stroke-linejoin="round"/>
<path d="M174.589 332.633L175.496 340.432L138.334 377.568L136.504 373.442L174.589 332.633Z" fill="white" stroke="#263238" stroke-linecap="round" stroke-linejoin="round"/>
<path d="M175.496 340.432L229.643 356.937L232.411 351.436L174.588 332.633L175.496 340.432Z" fill="white" stroke="#263238" stroke-linecap="round" stroke-linejoin="round"/>
<path d="M215.738 372.629C215.738 372.629 206.479 373.739 206.73 375.13C206.98 376.521 214.55 376.239 216.223 376.239C217.897 376.239 220.603 372.316 215.738 372.629Z" fill="white" stroke="#263238" stroke-linecap="round" stroke-linejoin="round"/>
<path d="M219.007 368.987C219.007 368.987 207.339 370.222 207.636 371.754C207.934 373.285 217.474 372.973 219.617 372.973C221.76 372.973 225.138 368.675 219.007 368.987Z" fill="white" stroke="#263238" stroke-linecap="round" stroke-linejoin="round"/>
<path d="M223.027 365.299C223.027 365.299 211.359 366.534 211.656 368.065C211.954 369.597 221.494 369.3 223.637 369.3C225.78 369.3 229.142 365.002 223.027 365.299Z" fill="white" stroke="#263238" stroke-linecap="round" stroke-linejoin="round"/>
<path d="M223.606 361.626C223.606 361.626 211.938 362.845 212.251 364.392C212.564 365.94 222.073 365.611 224.216 365.611C226.358 365.611 229.752 361.376 223.606 361.626Z" fill="white" stroke="#263238" stroke-linecap="round" stroke-linejoin="round"/>
<path d="M84.8597 404.357C84.8597 404.357 79.6202 391.541 95.9487 380.475C112.277 369.409 173.384 362.407 187.961 368.237C202.538 374.067 257.921 419.502 257.921 419.502L250.914 426.488C250.914 426.488 208.356 427.645 190.292 422.987C172.227 418.33 165.157 416.079 165.157 416.079C165.157 416.079 150.002 437.632 129.013 438.21" fill="#263238"/>
<path d="M84.8597 404.357C84.8597 404.357 79.6202 391.541 95.9487 380.475C112.277 369.409 173.384 362.407 187.961 368.237C202.538 374.067 257.921 419.502 257.921 419.502L250.914 426.488C250.914 426.488 208.356 427.645 190.292 422.987C172.227 418.33 165.157 416.079 165.157 416.079C165.157 416.079 150.002 437.632 129.013 438.21" stroke="#263238" stroke-linecap="round" stroke-linejoin="round"/>
<path d="M251.508 430.567C263.806 435.538 276.761 438.697 289.968 439.945C310.957 441.696 317.37 424.8 317.37 419.627C317.37 414.454 308.627 415.548 299.884 416.704C291.141 417.861 269.573 419.033 264.317 418.455C259.062 417.876 245.095 420.08 251.508 430.567Z" fill="white" stroke="#263238" stroke-linecap="round" stroke-linejoin="round"/>
<path d="M302.214 361.829C302.214 361.829 277.189 361.235 263.739 374.645C250.288 388.055 220.603 425.316 213.611 432.318C206.62 439.32 178.639 437.554 172.805 437.007C166.972 436.46 161.138 432.318 152.989 435.835C144.84 439.351 134.33 445.212 132.578 452.73C130.827 460.248 129.669 463.217 133.157 463.796C136.645 464.374 155.32 461.404 165.157 461.404C174.995 461.404 198.972 459.654 212.97 455.59C226.968 451.527 267.18 427.614 282.914 418.298C298.648 408.983 326.707 392.088 331.305 376.365C335.904 360.641 323.72 357.14 316.728 358.297" fill="#263238"/>
<path d="M302.214 361.829C302.214 361.829 277.189 361.235 263.739 374.645C250.288 388.055 220.603 425.316 213.611 432.318C206.62 439.32 178.639 437.554 172.805 437.007C166.972 436.46 161.138 432.318 152.989 435.835C144.84 439.351 134.33 445.212 132.578 452.73C130.827 460.248 129.669 463.217 133.157 463.796C136.645 464.374 155.32 461.404 165.157 461.404C174.995 461.404 198.972 459.654 212.97 455.59C226.968 451.527 267.18 427.614 282.914 418.298C298.648 408.983 326.707 392.088 331.305 376.365C335.904 360.641 323.72 357.14 316.728 358.297" stroke="#263238" stroke-linecap="round" stroke-linejoin="round"/>
<path d="M221.072 428.676C221.072 428.676 254.699 378.662 271.903 369.284C289.108 359.907 307.876 361.47 307.876 361.47" stroke="white" stroke-linecap="round" stroke-linejoin="round"/>
<path d="M208.121 435.256C197.361 438.71 177.591 437.444 172.805 436.976C166.972 436.397 161.138 432.287 152.989 435.803C144.84 439.32 134.33 445.181 132.578 452.699C130.827 460.217 129.669 463.186 133.157 463.764C136.645 464.343 155.319 461.404 165.157 461.404C174.995 461.404 198.972 459.654 212.97 455.59C216.926 454.308 220.783 452.741 224.513 450.901C220.509 443.602 213.205 438.288 208.121 435.256Z" fill="white" stroke="#263238" stroke-linecap="round" stroke-linejoin="round"/>
<path d="M190.292 436.976C190.292 436.976 200.786 441.664 203.117 446.869C205.447 452.074 207.199 456.778 207.199 458.529C207.199 460.279 226.436 455.622 232.223 449.792C238.01 443.962 222.839 428.239 217.647 428.239C212.454 428.239 211.234 429.989 204.821 431.724C198.409 433.459 189.119 432.318 190.292 436.976Z" fill="white" stroke="#263238" stroke-linecap="round" stroke-linejoin="round"/>
<path d="M165.157 416.079C165.157 416.079 152.332 409.671 151.753 401.512" stroke="white" stroke-linecap="round" stroke-linejoin="round"/>
<path d="M141.306 434.928C151.477 430.597 160.962 424.805 169.458 417.736C169.458 417.736 194.483 425.55 210.905 425.55" stroke="white" stroke-linecap="round" stroke-linejoin="round"/>
<path d="M234.522 246.093C231.768 244.631 228.914 243.362 225.983 242.295C219.555 240.013 237.916 218.851 233.318 208.363C228.72 197.876 219.555 193.687 211.75 199.658C211.75 199.658 199.363 223.493 194.78 228.088C192.341 230.759 189.358 232.877 186.032 234.301C182.706 235.724 179.113 236.42 175.496 236.34C173.758 236.361 172.024 236.492 170.303 236.731C169.427 246.89 170.131 271.225 195.687 278.071C219.758 284.51 230.049 264.661 234.522 246.093Z" fill="white"/>
<path d="M211.75 199.658C211.75 199.658 199.363 223.493 194.78 228.088C192.341 230.759 189.358 232.877 186.032 234.301C182.706 235.724 179.113 236.42 175.496 236.34C173.758 236.361 172.024 236.492 170.303 236.731C170.193 238.013 170.115 239.529 170.1 241.217C172.665 247.859 177.607 256.518 186.225 258.409C200.614 261.535 210.89 251.219 212.954 247.625C214.8 244.374 222.964 211.349 220.774 197.048C219.172 196.858 217.548 196.991 215.998 197.44C214.448 197.888 213.003 198.642 211.75 199.658V199.658Z" fill="#623FF0"/>
<path opacity="0.7" d="M211.75 199.658C211.75 199.658 199.363 223.493 194.78 228.088C192.341 230.759 189.358 232.877 186.032 234.301C182.706 235.724 179.113 236.42 175.496 236.34C173.758 236.361 172.024 236.492 170.303 236.731C170.193 238.013 170.115 239.529 170.1 241.217C172.665 247.859 177.607 256.518 186.225 258.409C200.614 261.535 210.89 251.219 212.954 247.625C214.8 244.374 222.964 211.349 220.774 197.048C219.172 196.858 217.548 196.991 215.998 197.44C214.448 197.888 213.003 198.642 211.75 199.658V199.658Z" fill="white"/>
<path d="M234.522 246.093C231.768 244.631 228.914 243.362 225.983 242.295C219.555 240.013 237.916 218.851 233.318 208.363C228.72 197.876 219.555 193.687 211.75 199.658C211.75 199.658 199.363 223.493 194.78 228.088C192.341 230.759 189.358 232.877 186.032 234.301C182.706 235.724 179.113 236.42 175.496 236.34C173.758 236.361 172.024 236.492 170.303 236.731C169.427 246.89 170.131 271.225 195.687 278.071C219.758 284.51 230.049 264.661 234.522 246.093Z" stroke="#263238" stroke-linecap="round" stroke-linejoin="round"/>
<path d="M211.453 251.11C211.453 251.11 205.791 253.767 203.946 262.051" stroke="#263238" stroke-linecap="round" stroke-linejoin="round"/>
<path d="M225.514 171.228C225.514 171.228 228.266 162.053 221.854 158.849C215.441 155.645 190.651 165.257 185.146 181.309C179.64 197.36 203.038 203.784 215.879 194.61C228.72 185.435 226.436 173.057 226.436 173.057L225.514 171.228Z" fill="#263238" stroke="#263238" stroke-linecap="round" stroke-linejoin="round"/>
<path d="M185.146 181.309C185.146 181.309 179.969 195.188 189.525 202.19C199.081 209.192 213.079 195.829 213.079 195.829" stroke="#263238" stroke-linecap="round" stroke-linejoin="round"/>
<path d="M212.22 215.24C212.22 215.24 201.662 203.784 208.951 183.2C216.239 162.616 235.539 157.083 258.562 158.334C287.497 159.897 290.171 190.077 289.264 197.407C288.691 201.905 287.771 206.352 286.511 210.708C286.511 210.708 297.976 224.915 291.548 233.636C285.119 242.358 262.644 238.216 253.917 226.291C245.189 214.365 219.054 218.038 217.678 218.96C216.302 219.882 212.22 215.24 212.22 215.24Z" fill="#263238" stroke="#263238" stroke-linecap="round" stroke-linejoin="round"/>
<path d="M271.903 234.558C270.59 234.011 269.419 233.171 268.478 232.105" stroke="white" stroke-linecap="round" stroke-linejoin="round"/>
<path d="M265.256 209.192C265.256 209.192 287.528 227.009 280.537 232.73C279.867 233.28 279.144 233.762 278.378 234.168" stroke="white" stroke-linecap="round" stroke-linejoin="round"/>
<path d="M262.128 204.097C269.59 203.902 276.997 205.426 283.774 208.551" stroke="white" stroke-linecap="round" stroke-linejoin="round"/>
<path d="M262.112 195.829L257.014 171.65" stroke="white" stroke-linecap="round" stroke-linejoin="round"/>
<path d="M218.491 195.579C217.631 195.282 216.771 194.953 215.879 194.61" stroke="white" stroke-linecap="round" stroke-linejoin="round"/>
<path d="M260.204 192.656C260.204 192.656 247.692 202.221 226.577 197.829" stroke="white" stroke-linecap="round" stroke-linejoin="round"/>
<path d="M257.655 183.106C257.655 183.106 250.022 186.92 237.322 186.92" stroke="white" stroke-linecap="round" stroke-linejoin="round"/>
<path d="M207.621 216.163C207.621 216.163 206.245 228.994 208.544 237.716C210.843 246.437 211.297 260.191 219.492 261.566C227.688 262.942 254.824 247.797 259.876 242.295C263.431 238.6 265.405 233.667 265.381 228.541C265.381 225.79 260.798 206.535 260.798 206.535C253.07 208.285 245.232 209.512 237.338 210.208C228.793 211.032 220.173 209.932 212.11 206.988C212.11 206.988 205.822 211.114 207.621 216.163Z" fill="white"/>
<path d="M212.219 206.988C212.219 206.988 205.791 211.114 207.621 216.163C207.621 216.163 206.245 228.994 208.544 237.716C210.421 244.827 211.062 255.299 215.738 259.597C211.875 251.141 209.889 230.636 219.633 221.821C230.425 212.068 257.17 207.441 257.17 207.441V207.285C253.213 208.082 246.331 209.286 237.494 210.145C228.939 210.997 220.302 209.918 212.219 206.988V206.988Z" fill="#623FF0"/>
<path opacity="0.7" d="M212.219 206.988C212.219 206.988 205.791 211.114 207.621 216.163C207.621 216.163 206.245 228.994 208.544 237.716C210.421 244.827 211.062 255.299 215.738 259.597C211.875 251.141 209.889 230.636 219.633 221.821C230.425 212.068 257.17 207.441 257.17 207.441V207.285C253.213 208.082 246.331 209.286 237.494 210.145C228.939 210.997 220.302 209.918 212.219 206.988V206.988Z" fill="white"/>
<path d="M207.621 216.163C207.621 216.163 206.245 228.994 208.544 237.716C210.843 246.437 211.297 260.191 219.492 261.566C227.688 262.942 254.824 247.797 259.876 242.295C263.431 238.6 265.405 233.667 265.381 228.541C265.381 225.79 260.798 206.535 260.798 206.535C253.07 208.285 245.232 209.512 237.338 210.208C228.793 211.032 220.173 209.932 212.11 206.988C212.11 206.988 205.822 211.114 207.621 216.163Z" stroke="#263238" stroke-linecap="round" stroke-linejoin="round"/>
<path d="M213.127 211.583C213.127 211.583 213.596 200.111 208.075 200.111C202.554 200.111 198.91 218.867 209.467 221.211" fill="white"/>
<path d="M213.127 211.583C213.127 211.583 213.596 200.111 208.075 200.111C202.554 200.111 198.91 218.867 209.467 221.211" fill="#623FF0"/>
<path opacity="0.7" d="M213.127 211.583C213.127 211.583 213.596 200.111 208.075 200.111C202.554 200.111 198.91 218.867 209.467 221.211" fill="white"/>
<path d="M213.127 211.583C213.127 211.583 213.596 200.111 208.075 200.111C202.554 200.111 198.91 218.867 209.467 221.211" stroke="#263238" stroke-linecap="round" stroke-linejoin="round"/>
<path d="M248.051 231.761C248.051 231.761 237.103 249.172 234.741 249.172C232.38 249.172 231.066 245.515 231.066 245.515" stroke="#263238" stroke-linecap="round" stroke-linejoin="round"/>
<path d="M227.359 224.868C227.567 226.903 228.53 228.786 230.059 230.146C231.587 231.506 233.571 232.244 235.618 232.214" stroke="#263238" stroke-linecap="round" stroke-linejoin="round"/>
<path d="M247.082 239.091C247.082 239.091 247.551 245.046 255.34 243.217" stroke="#263238" stroke-linecap="round" stroke-linejoin="round"/>
<path d="M243.876 225.79C243.876 225.79 240.669 217.538 233.318 217.085" stroke="#263238" stroke-width="1.5" stroke-linecap="round" stroke-linejoin="round"/>
<path d="M259.938 235.418C256.716 229.917 250.304 231.292 250.304 231.292" stroke="#263238" stroke-width="1.5" stroke-linecap="round" stroke-linejoin="round"/>
<path d="M221.885 247.484C221.999 248.694 222.503 249.834 223.321 250.733C224.139 251.632 225.227 252.242 226.421 252.47" stroke="#263238" stroke-linecap="round" stroke-linejoin="round"/>
<path d="M254.479 253.736C254.479 253.736 255.746 260.722 263.379 246.734C271.011 232.746 260.861 206.535 260.861 206.535" stroke="#263238" stroke-linecap="round" stroke-linejoin="round"/>
<path opacity="0.13" d="M230.425 320.145C230.465 320.055 230.497 319.961 230.519 319.864L230.425 320.145Z" fill="black"/>
</svg>
