<svg width="577" height="557" viewBox="0 0 577 557" fill="none" xmlns="http://www.w3.org/2000/svg">
<path d="M185.178 20.1856C161.773 27.7146 139.368 38.0535 118.456 50.9756C99.7775 62.7547 82.7609 76.9787 67.8589 93.2689C-6.99601 175.245 -23.872 304.673 38.236 398.715C72.4885 450.59 140.071 503.745 205.713 498.041C252.134 494.008 295.161 470.392 342.536 474.596C391.334 478.973 435.596 485.537 481 460.764C529.626 434.272 560.203 381.757 570.776 327.429C583.882 260.004 574.639 181.81 544.453 120.058C485.129 -1.21109 311.223 -21.3731 185.178 20.1856Z" fill="#9982F4"/>
<path opacity="0.8" d="M185.178 20.1856C161.773 27.7146 139.368 38.0535 118.456 50.9756C99.7775 62.7547 82.7609 76.9787 67.8589 93.2689C-6.99601 175.245 -23.872 304.673 38.236 398.715C72.4885 450.59 140.071 503.745 205.713 498.041C252.134 494.008 295.161 470.392 342.536 474.596C391.334 478.973 435.596 485.537 481 460.764C529.626 434.272 560.203 381.757 570.776 327.429C583.882 260.004 574.639 181.81 544.453 120.058C485.129 -1.21109 311.223 -21.3731 185.178 20.1856Z" fill="#F3F3F3"/>
<path opacity="0.28" d="M258.719 470.673L313.523 501.15L315.603 519.906L383.388 474.049L386.376 447.369L258.719 470.673Z" fill="black"/>
<path d="M321.093 491.648L258.719 470.673L325.753 435.147L386.376 447.369L321.093 491.648Z" fill="#F3F3F3"/>
<path opacity="0.15" d="M321.093 491.648L258.719 470.673L325.753 435.147L386.376 447.369L321.093 491.648Z" fill="black"/>
<path d="M321.093 491.648L258.719 470.673L325.753 435.147L386.376 447.369L321.093 491.648Z" stroke="black" stroke-linecap="round" stroke-linejoin="round"/>
<path d="M333.339 451.449L314.837 446.963L293.644 458.185L312.35 463.108L333.339 451.449Z" stroke="black" stroke-linecap="round" stroke-linejoin="round"/>
<path d="M344.991 445.635L290.782 474.752L321.421 485.24L371.908 451.011L344.991 445.635Z" fill="black"/>
<path d="M350.231 408.937L321.093 491.648L386.376 447.369L412.026 378.053L350.231 408.937Z" fill="#F3F3F3"/>
<path opacity="0.15" d="M350.231 408.937L321.093 491.648L386.376 447.369L412.026 378.053L350.231 408.937Z" fill="black"/>
<path d="M350.231 408.937L321.093 491.648L386.376 447.369L412.026 378.053L350.231 408.937Z" stroke="black" stroke-linecap="round" stroke-linejoin="round"/>
<path d="M140.086 493.304L179.375 549.305L242.359 526.22L199.019 477.722L140.086 493.304Z" fill="#F3F3F3" stroke="black" stroke-linecap="round" stroke-linejoin="round"/>
<path d="M228.486 478.3L284.526 525.063L207.106 555.666L160.31 496.196L228.486 478.3Z" fill="#F3F3F3" stroke="black" stroke-linecap="round" stroke-linejoin="round"/>
<path opacity="0.28" d="M554.479 383.836H336.248V389.416H554.479V383.836Z" fill="black"/>
<path d="M488.241 228.042H511.702L530.142 271.21H506.681L488.241 228.042Z" fill="black" stroke="black" stroke-linecap="round" stroke-linejoin="round"/>
<path d="M519.428 216.569H483.346L462.544 271.21H498.627L519.428 216.569Z" fill="#F3F3F3" stroke="black" stroke-linecap="round" stroke-linejoin="round"/>
<path d="M512.594 223.134H485.176L469.379 264.646H496.797L512.594 223.134Z" fill="#F3F3F3" stroke="black" stroke-linecap="round" stroke-linejoin="round"/>
<path d="M427.228 184.748C427.228 184.748 438.818 179.887 426.837 179.575C414.857 179.262 399.482 196.345 400.577 194.704C401.672 193.063 405.645 181.341 398.247 189.171C390.849 197.001 385.734 221.633 385.734 221.633C386.652 216.57 387.082 211.431 387.017 206.285C386.782 198.689 381.699 179.481 373.957 177.996C368.89 177.011 371.032 182.888 373.113 187.092C370.391 182.841 365.027 176.464 356.549 174.589C343.505 171.744 334.059 184.592 326.051 190.906C318.043 197.22 329.617 192.375 338.563 189.796C347.509 187.217 347.947 192.375 347.947 192.375C347.947 192.375 336.264 191.343 336.139 196.72C336.014 202.097 361.163 189.827 367.654 205.457C374.145 221.086 374.958 239.764 374.958 239.764L383.232 236.888C384.305 234.83 385.19 232.68 385.875 230.464C386.548 227.807 395.541 225.228 402.391 221.774C409.242 218.32 398.544 216.866 400.061 216.226C401.578 215.585 416.499 215.866 423.522 214.131C430.544 212.396 410.587 205.91 410.587 205.91C410.587 205.91 446.56 212.74 446.56 203.91C446.56 195.079 427.228 184.748 427.228 184.748Z" fill="#9982F4"/>
<path d="M367.138 203.394C359.49 197.392 360.585 205.582 360.585 205.582C354.864 202.757 348.457 201.619 342.113 202.3C331.165 203.394 334.465 205.582 334.465 205.582C334.465 205.582 330.086 203.941 322.438 213.772C314.79 223.603 315.884 230.714 318.606 228.526C321.327 226.338 338.297 217.054 338.297 217.054C338.297 217.054 325.175 226.338 332.275 229.073C337.609 231.12 348.776 226.416 354.031 223.931C350.903 225.635 347.165 228.338 353.062 229.073C361.805 230.167 371.642 241.577 371.642 241.577L374.379 236.653C374.379 236.653 374.849 209.411 367.138 203.394Z" fill="#9982F4"/>
<path d="M389.988 271.694H362.43L358.989 235.09H393.429L389.988 271.694Z" fill="black" stroke="black" stroke-linecap="round" stroke-linejoin="round"/>
<path d="M346.649 387.571H342.285L340.096 294.154H348.839L346.649 387.571Z" fill="black" stroke="black" stroke-linecap="round" stroke-linejoin="round"/>
<path d="M547.3 387.571H542.92L540.731 294.154H549.489L547.3 387.571Z" fill="black" stroke="black" stroke-linecap="round" stroke-linejoin="round"/>
<path d="M552.758 274.477H336.811V301.25H377.617L380.276 301.797C393.398 304.532 402.689 312.737 423.475 311.628C434.845 311.034 441.273 307.502 444.793 304.407C448.312 307.533 454.74 311.034 466.11 311.628C486.881 312.722 496.187 304.532 509.309 301.797L511.968 301.25H552.758V274.477Z" fill="#F3F3F3" stroke="black" stroke-linecap="round" stroke-linejoin="round"/>
<path d="M552.758 274.477H336.811V280.791H552.758V274.477Z" fill="black" stroke="black" stroke-linecap="round" stroke-linejoin="round"/>
<path d="M559.499 270.538H329.695V276.399H559.499V270.538Z" fill="#F3F3F3" stroke="black" stroke-linecap="round" stroke-linejoin="round"/>
<path opacity="0.28" d="M172.994 459.811C244.145 459.811 301.824 443.192 301.824 422.691C301.824 402.19 244.145 385.571 172.994 385.571C101.843 385.571 44.1638 402.19 44.1638 422.691C44.1638 443.192 101.843 459.811 172.994 459.811Z" fill="black"/>
<path d="M331.587 364.08C331.587 364.08 324.002 352.421 300.103 355.343C276.205 358.266 224.904 368.128 204.478 371.645C184.052 375.162 152.614 397.824 145.623 412.422C138.632 427.02 143.871 435.726 188.181 438.054C232.49 440.383 293.628 404.264 312.928 393.135C332.229 382.007 330.414 369.894 331.587 364.08Z" fill="black" stroke="black" stroke-linecap="round" stroke-linejoin="round"/>
<path d="M211.97 200.159C211.97 200.159 199.582 223.994 195 228.589C192.561 231.26 189.578 233.378 186.252 234.801C182.925 236.225 179.333 236.92 175.715 236.841C166.55 236.841 133.908 232.496 122.898 253.596C111.887 274.695 109.181 337.26 109.65 340.933C110.119 344.606 81.6539 368.91 82.5766 398.762C83.4994 428.614 115.156 445.525 159.668 439.117C204.181 432.709 215.645 399.669 215.645 380.413C215.645 361.158 225.28 350.608 235.837 330.399C246.394 310.19 261.988 289.137 256.936 271.241C251.884 253.346 232.631 245.093 226.202 242.796C219.774 240.498 238.136 219.352 233.538 208.864C228.939 198.377 219.774 194.188 211.97 200.159Z" fill="#9982F4"/>
<path opacity="0.13" d="M210.484 332.649C190.949 339.886 174.808 333.134 153.334 326.867C131.86 320.599 141.025 305.173 141.025 289.278C141.025 273.383 122.256 295.061 122.256 295.061L111.762 306.095C110.459 317.663 109.765 329.292 109.682 340.933C110.088 344.215 87.394 363.987 83.2493 389.384C93.7926 390.611 104.4 391.201 115.015 391.151C159.152 391.151 211.876 368.504 217.022 357.891C221.854 347.904 229.753 323.506 230.676 320.584C230.175 321.803 227.313 326.413 210.484 332.649Z" fill="black"/>
<path d="M211.97 200.159C211.97 200.159 199.582 223.994 195 228.589C192.561 231.26 189.578 233.378 186.252 234.801C182.925 236.225 179.333 236.92 175.715 236.841C166.55 236.841 133.908 232.496 122.898 253.596C111.887 274.695 109.181 337.26 109.65 340.933C110.119 344.606 81.6539 368.91 82.5766 398.762C83.4994 428.614 115.156 445.525 159.668 439.117C204.181 432.709 215.645 399.669 215.645 380.413C215.645 361.158 225.28 350.608 235.837 330.399C246.394 310.19 261.988 289.137 256.936 271.241C251.884 253.346 232.631 245.093 226.202 242.796C219.774 240.498 238.136 219.352 233.538 208.864C228.939 198.377 219.774 194.188 211.97 200.159Z" stroke="black" stroke-linecap="round" stroke-linejoin="round"/>
<path d="M242.719 293.248C242.719 293.248 232.161 300.125 231.239 306.533C230.316 312.941 232.615 326.71 223.903 334.056C215.192 341.402 208.763 341.386 208.763 341.386" stroke="black" stroke-linecap="round" stroke-linejoin="round"/>
<path d="M130.53 315.957C130.53 315.957 130.53 332.493 150.268 333.759" stroke="black" stroke-linecap="round" stroke-linejoin="round"/>
<path d="M191.027 292.404C193.913 299.214 196.251 306.244 198.018 313.425" stroke="black" stroke-linecap="round" stroke-linejoin="round"/>
<path d="M216.318 372.067C218.648 357.657 226.906 347.466 235.837 330.383C237.244 327.679 238.762 324.96 240.294 322.225C231.942 325.491 230.566 323.366 230.566 323.366C226.609 332.587 221.323 336.104 221.323 336.104L206.949 375.63L216.318 372.067Z" fill="#F3F3F3" stroke="black" stroke-linecap="round" stroke-linejoin="round"/>
<path d="M88.0038 374.021C84.3267 381.728 82.4699 390.177 82.5766 398.715C83.4838 428.521 115.156 445.479 159.668 439.07C204.181 432.662 215.645 399.622 215.645 380.366C215.617 374.45 216.639 368.577 218.664 363.018C134.925 381.726 101.251 378.616 88.0038 374.021Z" fill="black" stroke="black" stroke-linecap="round" stroke-linejoin="round"/>
<path d="M184.036 339.464L172.571 314.457C172.485 314.27 172.363 314.102 172.212 313.963C172.06 313.823 171.883 313.715 171.69 313.643C171.3 313.5 170.869 313.517 170.491 313.691C170.114 313.865 169.821 314.182 169.677 314.572C169.533 314.962 169.551 315.393 169.725 315.77L181.205 340.683L184.036 339.464Z" fill="#F3F3F3" stroke="black" stroke-linecap="round" stroke-linejoin="round"/>
<path d="M181.205 340.761L183.973 343.043L184.036 339.464L181.205 340.761Z" stroke="black" stroke-linecap="round" stroke-linejoin="round"/>
<path d="M170.491 313.769C170.304 313.855 170.136 313.977 169.996 314.128C169.856 314.279 169.747 314.456 169.676 314.649C169.605 314.843 169.572 315.048 169.581 315.253C169.589 315.459 169.638 315.661 169.725 315.848L170.882 318.364L173.729 317.067L172.571 314.535C172.485 314.348 172.363 314.18 172.212 314.04C172.061 313.9 171.884 313.791 171.69 313.72C171.497 313.649 171.292 313.617 171.086 313.625C170.88 313.633 170.678 313.682 170.491 313.769V313.769Z" fill="#F3F3F3" stroke="black" stroke-linecap="round" stroke-linejoin="round"/>
<path d="M167.457 239.592C161.488 237.536 155.135 236.839 148.862 237.553C142.59 238.267 136.556 240.374 131.203 243.718C112.856 255.174 96.5434 289.231 89.6616 301.156C82.7799 313.081 59.9449 364.08 65.1844 365.237C67.9059 365.846 153.693 349.608 161.044 349.186C168.395 348.764 178.468 344.137 178.468 344.137C178.468 344.137 183.066 349.186 185.365 346.888C187.664 344.59 181.221 332.681 178.014 329.008C174.808 325.335 170.679 323.96 168.38 325.804C166.081 327.648 151.863 340.933 151.863 340.933L96.6529 339.026L142.229 279.478" fill="#9982F4"/>
<path opacity="0.13" d="M174.761 333.134C167.754 327.273 162.749 336.432 157.087 341.058C151.426 345.684 141.666 345.169 111.855 345.169C82.0448 345.169 80.9969 346.2 78.4319 347.732C75.8669 349.264 83.5776 326.163 102.596 304.579C121.615 282.995 133.439 265.036 133.439 251.158C133.439 246.687 131.875 244.906 129.795 244.624C111.996 256.878 96.3245 289.543 89.6148 301.156C82.733 313.081 59.898 364.08 65.1376 365.237C67.859 365.846 153.647 349.607 160.998 349.185C168.348 348.763 178.421 344.137 178.421 344.137C179.078 344.828 179.789 345.466 180.548 346.044C181.283 341.558 179.25 336.869 174.761 333.134Z" fill="black"/>
<path d="M167.457 239.592C161.488 237.536 155.135 236.839 148.862 237.553C142.59 238.267 136.556 240.374 131.203 243.718C112.856 255.174 96.5434 289.231 89.6616 301.156C82.7799 313.081 59.9449 364.08 65.1844 365.237C67.9059 365.846 153.693 349.608 161.044 349.186C168.395 348.764 178.468 344.137 178.468 344.137C178.468 344.137 183.066 349.186 185.365 346.888C187.664 344.59 181.221 332.681 178.014 329.008C174.808 325.335 170.679 323.96 168.38 325.804C166.081 327.648 151.863 340.933 151.863 340.933L96.6529 339.026L142.229 279.478" stroke="black" stroke-linecap="round" stroke-linejoin="round"/>
<path d="M178.468 344.137C178.468 344.137 183.066 349.185 185.365 346.888C187.664 344.59 181.221 332.681 178.014 329.008C174.808 325.335 170.679 323.96 168.38 325.804C166.081 327.648 151.864 340.933 151.864 340.933L96.653 339.026L110.463 320.974C101.373 318.891 92.8746 314.77 85.6109 308.924C76.5238 327.335 60.727 364.252 65.1845 365.19C67.906 365.8 153.694 349.561 161.044 349.139C168.395 348.717 178.468 344.137 178.468 344.137Z" fill="#F3F3F3"/>
<path d="M174.761 333.134C167.754 327.273 162.749 336.432 157.088 341.058C151.426 345.684 141.666 345.169 111.856 345.169C82.0449 345.169 80.997 346.2 78.432 347.732C76.2736 349.029 81.388 332.868 94.4165 314.91C91.2883 313.214 88.3247 311.231 85.564 308.987C76.4769 327.398 60.6801 364.315 65.1377 365.253C67.8591 365.862 153.647 349.623 160.998 349.201C168.349 348.779 178.421 344.153 178.421 344.153C179.078 344.844 179.789 345.482 180.548 346.06C181.283 341.558 179.25 336.869 174.761 333.134Z" fill="#9982F4"/>
<path opacity="0.7" d="M174.761 333.134C167.754 327.273 162.749 336.432 157.088 341.058C151.426 345.684 141.666 345.169 111.856 345.169C82.0449 345.169 80.997 346.2 78.432 347.732C76.2736 349.029 81.388 332.868 94.4165 314.91C91.2883 313.214 88.3247 311.231 85.564 308.987C76.4769 327.398 60.6801 364.315 65.1377 365.253C67.8591 365.862 153.647 349.623 160.998 349.201C168.349 348.779 178.421 344.153 178.421 344.153C179.078 344.844 179.789 345.482 180.548 346.06C181.283 341.558 179.25 336.869 174.761 333.134Z" fill="#F3F3F3"/>
<path d="M178.468 344.137C178.468 344.137 183.066 349.185 185.365 346.888C187.664 344.59 181.221 332.681 178.014 329.008C174.808 325.335 170.679 323.96 168.38 325.804C166.081 327.648 151.864 340.933 151.864 340.933L96.653 339.026L110.463 320.974C101.373 318.891 92.8746 314.77 85.6109 308.924C76.5238 327.335 60.727 364.252 65.1845 365.19C67.906 365.8 153.694 349.561 161.044 349.139C168.395 348.717 178.468 344.137 178.468 344.137Z" stroke="black" stroke-linecap="round" stroke-linejoin="round"/>
<path d="M175.715 340.933L138.554 378.069L197.283 385.414L229.862 357.438L175.715 340.933Z" fill="#F3F3F3"/>
<path opacity="0.36" d="M175.715 340.933L138.554 378.069L197.283 385.414L229.862 357.438L175.715 340.933Z" fill="black"/>
<path d="M175.715 340.933L138.554 378.069L197.283 385.414L229.862 357.438L175.715 340.933Z" stroke="black" stroke-linecap="round" stroke-linejoin="round"/>
<path d="M174.808 333.134L175.715 340.933L138.554 378.069L136.724 373.943L174.808 333.134Z" fill="#F3F3F3" stroke="black" stroke-linecap="round" stroke-linejoin="round"/>
<path d="M175.715 340.933L229.862 357.438L232.631 351.936L174.808 333.134L175.715 340.933Z" fill="#F3F3F3" stroke="black" stroke-linecap="round" stroke-linejoin="round"/>
<path d="M215.958 373.13C215.958 373.13 206.699 374.239 206.949 375.63C207.199 377.021 214.769 376.74 216.443 376.74C218.116 376.74 220.822 372.817 215.958 373.13Z" fill="#F3F3F3" stroke="black" stroke-linecap="round" stroke-linejoin="round"/>
<path d="M219.227 369.488C219.227 369.488 207.559 370.723 207.856 372.255C208.153 373.786 217.694 373.474 219.837 373.474C221.979 373.474 225.358 369.175 219.227 369.488Z" fill="#F3F3F3" stroke="black" stroke-linecap="round" stroke-linejoin="round"/>
<path d="M223.246 365.8C223.246 365.8 211.579 367.034 211.876 368.566C212.173 370.098 221.714 369.801 223.856 369.801C225.999 369.801 229.362 365.503 223.246 365.8Z" fill="#F3F3F3" stroke="black" stroke-linecap="round" stroke-linejoin="round"/>
<path d="M223.825 362.127C223.825 362.127 212.157 363.346 212.47 364.893C212.783 366.44 222.292 366.112 224.435 366.112C226.578 366.112 229.972 361.877 223.825 362.127Z" fill="#F3F3F3" stroke="black" stroke-linecap="round" stroke-linejoin="round"/>
<path d="M85.0792 404.858C85.0792 404.858 79.8396 392.041 96.1682 380.976C112.497 369.91 173.604 362.908 188.181 368.738C202.757 374.568 258.14 420.002 258.14 420.002L251.133 426.989C251.133 426.989 208.576 428.145 190.511 423.488C172.446 418.83 165.377 416.58 165.377 416.58C165.377 416.58 150.221 438.133 129.232 438.711" fill="black"/>
<path d="M85.0792 404.858C85.0792 404.858 79.8396 392.041 96.1682 380.976C112.497 369.91 173.604 362.908 188.181 368.738C202.757 374.568 258.14 420.002 258.14 420.002L251.133 426.989C251.133 426.989 208.576 428.145 190.511 423.488C172.446 418.83 165.377 416.58 165.377 416.58C165.377 416.58 150.221 438.133 129.232 438.711" stroke="black" stroke-linecap="round" stroke-linejoin="round"/>
<path d="M251.728 431.068C264.025 436.038 276.981 439.197 290.187 440.446C311.177 442.196 317.589 425.301 317.589 420.128C317.589 414.954 308.846 416.048 300.103 417.205C291.36 418.361 269.792 419.534 264.537 418.955C259.282 418.377 245.315 420.581 251.728 431.068Z" fill="#F3F3F3" stroke="black" stroke-linecap="round" stroke-linejoin="round"/>
<path d="M302.434 362.33C302.434 362.33 277.409 361.736 263.958 375.146C250.507 388.556 220.822 425.817 213.831 432.819C206.839 439.821 178.859 438.055 173.025 437.508C167.191 436.961 161.357 432.819 153.209 436.335C145.06 439.852 134.55 445.713 132.798 453.231C131.046 460.749 129.889 463.718 133.377 464.296C136.864 464.875 155.539 461.905 165.377 461.905C175.215 461.905 199.191 460.155 213.189 456.091C227.188 452.027 267.399 428.114 283.133 418.799C298.868 409.484 326.926 392.588 331.525 376.865C336.123 361.142 323.939 357.641 316.948 358.798" fill="black"/>
<path d="M302.434 362.33C302.434 362.33 277.409 361.736 263.958 375.146C250.507 388.556 220.822 425.817 213.831 432.819C206.839 439.821 178.859 438.055 173.025 437.508C167.191 436.961 161.357 432.819 153.209 436.335C145.06 439.852 134.55 445.713 132.798 453.231C131.046 460.749 129.889 463.718 133.377 464.296C136.864 464.875 155.539 461.905 165.377 461.905C175.215 461.905 199.191 460.155 213.189 456.091C227.188 452.027 267.399 428.114 283.133 418.799C298.868 409.484 326.926 392.588 331.525 376.865C336.123 361.142 323.939 357.641 316.948 358.798" stroke="black" stroke-linecap="round" stroke-linejoin="round"/>
<path d="M221.291 429.177C221.291 429.177 254.918 379.163 272.123 369.785C289.327 360.407 308.095 361.97 308.095 361.97" stroke="#F3F3F3" stroke-linecap="round" stroke-linejoin="round"/>
<path d="M208.341 435.757C197.58 439.211 177.811 437.945 173.025 437.476C167.191 436.898 161.357 432.787 153.209 436.304C145.06 439.821 134.55 445.682 132.798 453.2C131.046 460.717 129.889 463.687 133.377 464.265C136.864 464.843 155.539 461.905 165.377 461.905C175.215 461.905 199.191 460.155 213.189 456.091C217.145 454.808 221.003 453.241 224.732 451.402C220.728 444.103 213.424 438.789 208.341 435.757Z" fill="#F3F3F3" stroke="black" stroke-linecap="round" stroke-linejoin="round"/>
<path d="M190.511 437.476C190.511 437.476 201.006 442.165 203.336 447.37C205.667 452.574 207.418 457.279 207.418 459.029C207.418 460.78 226.656 456.122 232.443 450.292C238.23 444.463 223.059 428.739 217.866 428.739C212.673 428.739 211.454 430.49 205.041 432.225C198.628 433.96 189.338 432.819 190.511 437.476Z" fill="#F3F3F3" stroke="black" stroke-linecap="round" stroke-linejoin="round"/>
<path d="M165.377 416.58C165.377 416.58 152.552 410.172 151.973 402.013" stroke="#F3F3F3" stroke-linecap="round" stroke-linejoin="round"/>
<path d="M141.525 435.429C151.697 431.098 161.181 425.306 169.678 418.236C169.678 418.236 194.703 426.051 211.125 426.051" stroke="#F3F3F3" stroke-linecap="round" stroke-linejoin="round"/>
<path d="M234.742 246.594C231.987 245.131 229.134 243.862 226.202 242.796C219.774 240.514 238.136 219.352 233.538 208.864C228.939 198.377 219.774 194.188 211.97 200.159C211.97 200.159 199.582 223.994 195 228.589C192.561 231.26 189.578 233.378 186.252 234.801C182.925 236.225 179.333 236.92 175.715 236.841C173.978 236.862 172.243 236.992 170.522 237.232C169.647 247.391 170.35 271.726 195.907 278.572C219.977 285.011 230.269 265.162 234.742 246.594Z" fill="#F3F3F3"/>
<path d="M211.97 200.159C211.97 200.159 199.583 223.994 195 228.589C192.561 231.26 189.578 233.378 186.252 234.802C182.925 236.225 179.333 236.92 175.715 236.841C173.978 236.862 172.244 236.993 170.523 237.232C170.413 238.513 170.335 240.029 170.319 241.717C172.884 248.36 177.827 257.019 186.445 258.91C200.834 262.036 211.109 251.72 213.174 248.125C215.02 244.875 223.184 211.849 220.994 197.549C219.392 197.359 217.768 197.492 216.218 197.941C214.667 198.389 213.223 199.143 211.97 200.159V200.159Z" fill="#9982F4"/>
<path opacity="0.7" d="M211.97 200.159C211.97 200.159 199.583 223.994 195 228.589C192.561 231.26 189.578 233.378 186.252 234.802C182.925 236.225 179.333 236.92 175.715 236.841C173.978 236.862 172.244 236.993 170.523 237.232C170.413 238.513 170.335 240.029 170.319 241.717C172.884 248.36 177.827 257.019 186.445 258.91C200.834 262.036 211.109 251.72 213.174 248.125C215.02 244.875 223.184 211.849 220.994 197.549C219.392 197.359 217.768 197.492 216.218 197.941C214.667 198.389 213.223 199.143 211.97 200.159V200.159Z" fill="#F3F3F3"/>
<path d="M234.742 246.594C231.987 245.131 229.134 243.862 226.202 242.796C219.774 240.514 238.136 219.352 233.538 208.864C228.939 198.377 219.774 194.188 211.97 200.159C211.97 200.159 199.582 223.994 195 228.589C192.561 231.26 189.578 233.378 186.252 234.801C182.925 236.225 179.333 236.92 175.715 236.841C173.978 236.862 172.243 236.992 170.522 237.232C169.647 247.391 170.35 271.726 195.907 278.572C219.977 285.011 230.269 265.162 234.742 246.594Z" stroke="black" stroke-linecap="round" stroke-linejoin="round"/>
<path d="M211.672 251.611C211.672 251.611 206.011 254.268 204.165 262.551" stroke="black" stroke-linecap="round" stroke-linejoin="round"/>
<path d="M225.733 171.729C225.733 171.729 228.486 162.554 222.073 159.35C215.661 156.146 190.871 165.758 185.365 181.81C179.86 197.861 203.258 204.285 216.099 195.11C228.94 185.936 226.656 173.557 226.656 173.557L225.733 171.729Z" fill="black" stroke="black" stroke-linecap="round" stroke-linejoin="round"/>
<path d="M185.365 181.81C185.365 181.81 180.188 195.689 189.745 202.691C199.301 209.693 213.299 196.329 213.299 196.329" stroke="black" stroke-linecap="round" stroke-linejoin="round"/>
<path d="M212.439 215.741C212.439 215.741 201.882 204.285 209.17 183.701C216.458 163.117 235.759 157.584 258.781 158.834C287.716 160.397 290.391 190.578 289.483 197.908C288.911 202.406 287.99 206.853 286.731 211.209C286.731 211.209 298.195 225.416 291.767 234.137C285.339 242.858 262.863 238.717 254.136 226.791C245.409 214.866 219.274 218.539 217.897 219.461C216.521 220.383 212.439 215.741 212.439 215.741Z" fill="black" stroke="black" stroke-linecap="round" stroke-linejoin="round"/>
<path d="M272.122 235.059C270.809 234.511 269.638 233.672 268.697 232.605" stroke="#F3F3F3" stroke-linecap="round" stroke-linejoin="round"/>
<path d="M265.475 209.693C265.475 209.693 287.747 227.51 280.756 233.231C280.087 233.781 279.364 234.263 278.598 234.668" stroke="#F3F3F3" stroke-linecap="round" stroke-linejoin="round"/>
<path d="M262.347 204.597C269.809 204.402 277.216 205.926 283.994 209.052" stroke="#F3F3F3" stroke-linecap="round" stroke-linejoin="round"/>
<path d="M262.332 196.329L257.233 172.151" stroke="#F3F3F3" stroke-linecap="round" stroke-linejoin="round"/>
<path d="M218.711 196.079C217.85 195.782 216.99 195.454 216.099 195.11" stroke="#F3F3F3" stroke-linecap="round" stroke-linejoin="round"/>
<path d="M260.423 193.157C260.423 193.157 247.911 202.722 226.797 198.33" stroke="#F3F3F3" stroke-linecap="round" stroke-linejoin="round"/>
<path d="M257.874 183.607C257.874 183.607 250.242 187.421 237.542 187.421" stroke="#F3F3F3" stroke-linecap="round" stroke-linejoin="round"/>
<path d="M207.841 216.663C207.841 216.663 206.464 229.495 208.763 238.216C211.062 246.938 211.516 260.692 219.712 262.067C227.907 263.442 255.043 248.297 260.095 242.796C263.65 239.101 265.625 234.168 265.601 229.042C265.601 226.291 261.018 207.036 261.018 207.036C253.289 208.786 245.451 210.013 237.557 210.709C229.013 211.533 220.392 210.433 212.329 207.489C212.329 207.489 206.042 211.615 207.841 216.663Z" fill="#F3F3F3"/>
<path d="M212.439 207.489C212.439 207.489 206.011 211.615 207.841 216.663C207.841 216.663 206.464 229.495 208.763 238.216C210.64 245.328 211.281 255.799 215.958 260.098C212.095 251.642 210.108 231.136 219.852 222.321C230.644 212.568 257.389 207.942 257.389 207.942V207.786C253.432 208.583 246.551 209.786 237.714 210.646C229.158 211.497 220.521 210.419 212.439 207.489V207.489Z" fill="#9982F4"/>
<path opacity="0.7" d="M212.439 207.489C212.439 207.489 206.011 211.615 207.841 216.663C207.841 216.663 206.464 229.495 208.763 238.216C210.64 245.328 211.281 255.799 215.958 260.098C212.095 251.642 210.108 231.136 219.852 222.321C230.644 212.568 257.389 207.942 257.389 207.942V207.786C253.432 208.583 246.551 209.786 237.714 210.646C229.158 211.497 220.521 210.419 212.439 207.489V207.489Z" fill="#F3F3F3"/>
<path d="M207.841 216.663C207.841 216.663 206.464 229.495 208.763 238.216C211.062 246.938 211.516 260.692 219.712 262.067C227.907 263.442 255.043 248.297 260.095 242.796C263.65 239.101 265.625 234.168 265.601 229.042C265.601 226.291 261.018 207.036 261.018 207.036C253.289 208.786 245.451 210.013 237.557 210.709C229.013 211.533 220.392 210.433 212.329 207.489C212.329 207.489 206.042 211.615 207.841 216.663Z" stroke="black" stroke-linecap="round" stroke-linejoin="round"/>
<path d="M213.346 212.084C213.346 212.084 213.815 200.612 208.294 200.612C202.773 200.612 199.129 219.367 209.686 221.712" fill="#F3F3F3"/>
<path d="M213.346 212.084C213.346 212.084 213.815 200.612 208.294 200.612C202.773 200.612 199.129 219.367 209.686 221.712" fill="#9982F4"/>
<path opacity="0.7" d="M213.346 212.084C213.346 212.084 213.815 200.612 208.294 200.612C202.773 200.612 199.129 219.367 209.686 221.712" fill="#F3F3F3"/>
<path d="M213.346 212.084C213.346 212.084 213.815 200.612 208.294 200.612C202.773 200.612 199.129 219.367 209.686 221.712" stroke="black" stroke-linecap="round" stroke-linejoin="round"/>
<path d="M248.271 232.261C248.271 232.261 237.323 249.673 234.961 249.673C232.599 249.673 231.285 246.015 231.285 246.015" stroke="black" stroke-linecap="round" stroke-linejoin="round"/>
<path d="M227.579 225.369C227.786 227.404 228.749 229.287 230.278 230.647C231.807 232.007 233.79 232.745 235.837 232.715" stroke="black" stroke-linecap="round" stroke-linejoin="round"/>
<path d="M247.301 239.592C247.301 239.592 247.77 245.547 255.559 243.718" stroke="black" stroke-linecap="round" stroke-linejoin="round"/>
<path d="M244.095 226.291C244.095 226.291 240.889 218.039 233.538 217.585" stroke="black" stroke-width="1.5" stroke-linecap="round" stroke-linejoin="round"/>
<path d="M260.158 235.919C256.936 230.417 250.523 231.793 250.523 231.793" stroke="black" stroke-width="1.5" stroke-linecap="round" stroke-linejoin="round"/>
<path d="M222.104 247.985C222.218 249.195 222.722 250.335 223.54 251.234C224.358 252.133 225.446 252.742 226.64 252.971" stroke="black" stroke-linecap="round" stroke-linejoin="round"/>
<path d="M254.699 254.237C254.699 254.237 255.966 261.223 263.599 247.235C271.231 233.246 261.081 207.036 261.081 207.036" stroke="black" stroke-linecap="round" stroke-linejoin="round"/>
<path opacity="0.13" d="M230.644 320.646C230.685 320.556 230.716 320.461 230.738 320.365L230.644 320.646Z" fill="black"/>
</svg>
