<svg width="427" height="443" viewBox="0 0 427 443" fill="none" xmlns="http://www.w3.org/2000/svg">
<path opacity="0.7" d="M25.8939 137.974C25.8939 137.974 -1.98614 209.974 37.1939 282.474C76.3739 354.974 157.074 393.274 221.664 426.024C286.254 458.774 353.324 442.824 385.194 389.184C417.064 335.544 373.354 297.254 373.294 220.764C373.234 144.274 384.744 124.024 343.294 59.4043C301.844 -5.21566 200.234 -19.5257 123.394 28.4044C46.5539 76.3344 25.8939 137.974 25.8939 137.974Z" fill="white"/>
<path d="M21.6538 110.045C48.3638 58.2046 97.9638 18.9846 159.714 13.4646C202.184 9.76147 244.511 22.0072 278.444 47.8146C295.304 60.8146 310.284 77.3646 320.234 96.2546C331.654 117.955 334.984 142.975 346.734 164.575C361.344 191.425 388.784 202.505 407.214 225.705C422.384 244.815 427.594 270.425 425.854 294.765C422.674 339.195 396.644 381.375 358.354 404.145C325.984 423.395 286.964 428.705 249.354 426.955C191.354 424.265 133.614 405.135 87.9338 369.305C42.2538 333.475 9.42383 280.505 1.64383 222.975C-3.64617 183.885 4.04383 144.215 21.6538 110.045Z" fill="#623FF0"/>
<path opacity="0.7" d="M21.6538 110.045C48.3638 58.2046 97.9638 18.9846 159.714 13.4646C202.184 9.76147 244.511 22.0072 278.444 47.8146C295.304 60.8146 310.284 77.3646 320.234 96.2546C331.654 117.955 334.984 142.975 346.734 164.575C361.344 191.425 388.784 202.505 407.214 225.705C422.384 244.815 427.594 270.425 425.854 294.765C422.674 339.195 396.644 381.375 358.354 404.145C325.984 423.395 286.964 428.705 249.354 426.955C191.354 424.265 133.614 405.135 87.9338 369.305C42.2538 333.475 9.42383 280.505 1.64383 222.975C-3.64617 183.885 4.04383 144.215 21.6538 110.045Z" fill="white"/>
<path d="M375.294 398.934C369.934 403.394 328.644 431.734 269.724 427.164C266.554 400.344 254.464 290.164 268.214 272.884C268.214 272.884 301.574 256.974 332.304 263.654C363.034 270.334 374.994 276.734 377.184 282.274C378.844 286.464 376.474 364.484 375.294 398.934Z" fill="#263238"/>
<path d="M331.284 275.424C313.584 290.754 290.784 287.514 291.284 275.744C291.364 273.904 293.334 271.624 293.334 271.624L292.644 270.564L289.644 266.034C287.454 262.644 284.714 258.384 282.804 255.284C281.204 252.644 321.094 228.104 321.094 242.214C321.094 262.094 330.854 265.834 330.854 265.834C334.534 267.314 337.964 269.654 331.284 275.424Z" fill="white" stroke="#263238" stroke-linecap="round" stroke-linejoin="round"/>
<path d="M342.474 305.784C342.474 305.784 338.904 318.024 340.594 321.534" stroke="white" stroke-linecap="round" stroke-linejoin="round"/>
<path d="M338.304 270.244C338.304 282.054 303.074 293.624 292.754 281.774" stroke="white" stroke-linecap="round" stroke-linejoin="round"/>
<path d="M309.324 256.614C309.324 256.614 306.964 265.514 295.964 272.464C295.439 271.563 294.592 270.895 293.594 270.594C293.263 270.54 292.925 270.54 292.594 270.594L289.594 266.064C295.284 261.964 309.324 256.614 309.324 256.614Z" fill="#263238"/>
<path d="M314.264 245.674C314.264 245.674 314.144 254.454 312.264 256.244C298.314 269.624 284.674 270.684 282.424 267.154C267.274 243.394 270.854 237.154 269.314 233.084C266.584 225.944 263.234 214.284 264.714 207.224C268.014 191.454 297.714 179.224 313.354 195.084C320.854 202.674 323.224 219.144 321.644 232.864" fill="white"/>
<path d="M314.264 245.674C314.264 245.674 314.144 254.454 312.264 256.244C298.314 269.624 284.674 270.684 282.424 267.154C267.274 243.394 270.854 237.154 269.314 233.084C266.584 225.944 263.234 214.284 264.714 207.224C268.014 191.454 297.714 179.224 313.354 195.084C320.854 202.674 323.224 219.144 321.644 232.864" stroke="#263238" stroke-linecap="round" stroke-linejoin="round"/>
<path d="M271.224 225.744C271.224 225.744 267.054 223.874 266.154 226.104" stroke="#263238" stroke-linecap="round" stroke-linejoin="round"/>
<path d="M281.334 225.884C281.334 225.884 290.004 222.254 293.904 226.664" stroke="#263238" stroke-linecap="round" stroke-linejoin="round"/>
<path d="M290.964 232.034C291.104 233.334 290.474 234.464 289.544 234.574C288.614 234.684 287.754 233.694 287.614 232.394C287.474 231.094 288.104 229.954 289.034 229.854C289.964 229.754 290.784 230.734 290.964 232.034Z" fill="#263238"/>
<path d="M273.964 232.424C274.114 233.724 273.474 234.864 272.544 234.964C271.614 235.064 270.754 234.094 270.614 232.794C270.474 231.494 271.104 230.354 272.034 230.254C272.964 230.154 273.804 231.124 273.964 232.424Z" fill="#263238"/>
<path d="M274.384 229.004C275.594 230.954 274.934 234.284 273.334 238.854C271.734 243.424 273.144 245.074 279.284 245.534" fill="white"/>
<path d="M274.384 229.004C275.594 230.954 274.934 234.284 273.334 238.854C271.734 243.424 273.144 245.074 279.284 245.534" stroke="#263238" stroke-linecap="round" stroke-linejoin="round"/>
<path d="M279.284 253.444C279.284 253.444 287.284 252.714 290.944 250.704" stroke="#263238" stroke-linecap="round" stroke-linejoin="round"/>
<path d="M329.964 208.104C329.964 202.164 324.104 189.974 313.824 188.604C307.914 182.424 299.494 180.154 289.274 182.504C265.654 187.924 258.464 211.244 257.434 215.104C257.334 215.464 257.284 215.664 257.284 215.664L263.604 214.064L260.884 219.374L264.194 221.564L263.434 222.404L267.274 226.104L266.074 219.344C266.814 214.984 271.834 208.884 271.834 208.884C270.002 211.259 268.86 214.093 268.534 217.074C270.534 211.884 282.534 207.074 282.534 207.074C278.644 210.234 276.534 216.414 276.534 216.414C280.234 211.854 288.904 208.904 294.454 207.334C296.324 211.844 299.294 216.554 303.534 219.164C307.534 221.624 307.394 226.704 307.394 226.704C311.698 229.696 314.868 234.05 316.394 239.064L321.234 245.684C321.234 245.684 329.964 234.974 329.964 208.104Z" fill="#263238"/>
<path d="M309.594 228.404C307.974 224.934 313.854 215.534 318.024 216.694C320.364 217.354 323.424 221.624 324.024 226.104C324.624 230.584 321.454 239.104 318.074 240.954C315.924 242.154 314.154 238.884 314.154 238.884" fill="white"/>
<path d="M309.594 228.404C307.974 224.934 313.854 215.534 318.024 216.694C320.364 217.354 323.424 221.624 324.024 226.104C324.624 230.584 321.454 239.104 318.074 240.954C315.924 242.154 314.154 238.884 314.154 238.884" stroke="#263238" stroke-linecap="round" stroke-linejoin="round"/>
<path d="M54.4739 398.134L167.464 371.714L403.144 398.934L342.464 440.434L54.4739 398.134Z" fill="white"/>
<path d="M54.4739 398.134L167.464 371.714L403.144 398.934" fill="white"/>
<path d="M54.4739 398.134L167.464 371.714L403.144 398.934" stroke="#263238" stroke-linecap="round" stroke-linejoin="round"/>
<path d="M152.254 403.434L197.994 383.214L255.824 386.204L230.104 408.194L152.254 403.434Z" fill="white" stroke="#263238" stroke-linecap="round" stroke-linejoin="round"/>
<path d="M270.444 271.884C255.774 277.884 252.614 291.374 227.684 344.684C227.684 344.684 216.614 346.954 210.684 360.404C204.754 373.854 214.684 384.474 226.114 384.114C226.114 384.114 230.704 388.114 240.114 387.704C249.524 387.294 291.114 323.654 291.114 323.654L270.444 271.884Z" fill="#263238"/>
<path d="M232.054 347.814C238.614 353.654 242.384 362.224 240.384 371.724" stroke="white" stroke-linecap="round" stroke-linejoin="round"/>
<path d="M238.384 350.624C238.384 350.624 246.444 352.384 247.694 362.704" stroke="white" stroke-linecap="round" stroke-linejoin="round"/>
<path d="M261.964 320.424C258.156 311.029 256.84 300.808 258.144 290.754" stroke="white" stroke-linecap="round" stroke-linejoin="round"/>
<path d="M260.824 306.824C260.214 311.024 264.554 333.384 264.524 356.894" stroke="white" stroke-linecap="round" stroke-linejoin="round"/>
<path d="M370.484 276.304C388.834 285.524 391.014 313.894 373.704 347.814C361.474 371.754 344.594 407.104 333.914 409.474C323.234 411.844 312.814 405.194 312.814 405.194C312.814 405.194 303.814 404.774 301.094 398.374C293.654 380.884 312.564 358.784 319.964 364.074C319.964 364.074 343.724 312.404 348.054 309.144" fill="#263238"/>
<path d="M299.394 387.744C296.964 375.674 315.964 361.434 319.964 364.074C319.964 364.074 334.074 364.864 336.184 374.624" stroke="white" stroke-linecap="round" stroke-linejoin="round"/>
<path d="M351.084 390.314C359.344 375.744 373.704 347.814 373.704 347.814" stroke="white" stroke-linecap="round" stroke-linejoin="round"/>
<path d="M319.964 364.074C319.964 364.074 329.854 358.154 337.244 363.754" stroke="white" stroke-linecap="round" stroke-linejoin="round"/>
<path d="M323.344 356.884C323.344 356.884 328.804 344.884 334.344 333.884C339.884 322.884 352.564 306.594 357.834 305.804" stroke="white" stroke-linecap="round" stroke-linejoin="round"/>
<path d="M219.124 378.454C217.936 378.396 216.776 378.079 215.724 377.524C198.724 368.654 185.504 353.994 177.544 343.474C174.449 339.454 171.601 335.249 169.014 330.884L173.094 313.404C173.094 313.404 176.934 323.404 192.364 333.234C207.794 343.064 226.124 346.304 232.054 356.234C237.304 364.884 228.054 378.884 219.124 378.454Z" fill="white"/>
<path opacity="0.4" d="M219.124 378.454C218.934 377.19 218.599 375.952 218.124 374.764C214.554 365.824 192.954 348.054 192.954 348.054C187.814 347.894 182.164 345.754 177.564 343.474C174.462 339.454 171.607 335.25 169.014 330.884L173.094 313.404C173.094 313.404 176.934 323.404 192.364 333.234C207.794 343.064 226.124 346.304 232.054 356.234C237.304 364.884 228.054 378.884 219.124 378.454Z" fill="#623FF0"/>
<path d="M219.124 378.454C217.936 378.396 216.776 378.079 215.724 377.524C198.724 368.654 185.504 353.994 177.544 343.474C174.449 339.454 171.601 335.249 169.014 330.884L173.094 313.404C173.094 313.404 176.934 323.404 192.364 333.234C207.794 343.064 226.124 346.304 232.054 356.234C237.304 364.884 228.054 378.884 219.124 378.454Z" stroke="#263238" stroke-linecap="round" stroke-linejoin="round"/>
<path d="M180.624 329.824C180.624 329.824 178.514 339.144 172.954 337.054C169.954 335.924 164.174 326.964 163.084 322.444L180.624 329.824Z" fill="white" stroke="#263238" stroke-linecap="round" stroke-linejoin="round"/>
<path d="M156.114 272.434L160.654 270.094C160.654 270.094 173.484 270.204 181.444 276.674C188.674 282.554 192.344 291.764 192.344 291.764C192.344 291.764 220.434 276.254 249.124 285.154L260.824 350.364L207.034 353.884L173.464 321.994L156.114 272.434Z" fill="white" stroke="#263238" stroke-linecap="round" stroke-linejoin="round"/>
<path d="M264.524 352.974C264.524 352.974 258.214 352.784 249.774 353.064C237.014 353.464 219.384 354.904 211.324 359.594L210.944 359.464L203.564 356.884L203.414 356.664C202.054 354.664 191.084 338.914 175.414 332.504L153.254 270.584C153.254 270.584 176.254 271.584 188.824 292.364L195.134 294.644C195.134 294.644 232.684 283.524 253.704 287.524L264.524 352.974Z" fill="#623FF0"/>
<path opacity="0.3" d="M203.414 356.674C202.054 354.674 191.084 338.924 175.414 332.514L153.254 270.594C153.254 270.594 176.254 271.594 188.824 292.374L203.414 356.674Z" fill="black" fill-opacity="0.7"/>
<path opacity="0.3" d="M249.774 353.064C237.014 353.464 219.384 354.904 211.324 359.594L210.944 359.464L196.204 296.884C196.204 296.884 208.264 294.174 211.974 295.544C211.964 295.564 236.484 313.654 249.774 353.064Z" fill="black" fill-opacity="0.7"/>
<path d="M264.524 352.974C264.524 352.974 258.214 352.784 249.774 353.064C237.014 353.464 219.384 354.904 211.324 359.594L210.944 359.464L203.564 356.884L203.414 356.664C202.054 354.664 191.084 338.914 175.414 332.504L153.254 270.584C153.254 270.584 176.254 271.584 188.824 292.364L195.134 294.644C195.134 294.644 232.684 283.524 253.704 287.524L264.524 352.974Z" stroke="#263238" stroke-linecap="round" stroke-linejoin="round"/>
<path d="M195.154 294.654L209.624 354.684" stroke="#263238" stroke-linecap="round" stroke-linejoin="round"/>
<path d="M203.564 356.894L189.504 296.904" stroke="#263238" stroke-linecap="round" stroke-linejoin="round"/>
<path d="M167.844 330.934C164.634 330.044 158.164 310.754 161.124 302.444C161.124 302.444 164.644 296.334 166.124 295.914C168.364 295.264 177.404 295.454 176.964 296.974C175.964 300.494 169.024 300.434 169.024 300.434L166.774 304.554L166.864 306.824C166.864 306.824 170.134 304.444 171.334 304.514C171.954 304.514 175.154 306.114 177.694 307.454C179.864 308.604 181.194 309.234 180.694 310.274C179.084 313.734 172.234 311.274 172.234 311.274L169.654 315.164C169.654 315.164 172.144 315.594 173.234 315.714C174.324 315.834 183.374 321.864 183.104 322.614C182.034 325.554 173.454 322.374 173.454 322.374L171.934 323.644C171.934 323.644 178.254 325.274 178.934 325.514C179.934 325.884 183.784 328.844 183.724 329.184C183.264 331.784 177.954 329.874 177.954 329.874L173.304 329.684C172.595 330.309 171.743 330.749 170.824 330.964" fill="white"/>
<path d="M167.844 330.934C164.634 330.044 158.164 310.754 161.124 302.444C161.124 302.444 164.644 296.334 166.124 295.914C168.364 295.264 177.404 295.454 176.964 296.974C175.964 300.494 169.024 300.434 169.024 300.434L166.774 304.554L166.864 306.824C166.864 306.824 170.134 304.444 171.334 304.514C171.954 304.514 175.154 306.114 177.694 307.454C179.864 308.604 181.194 309.234 180.694 310.274C179.084 313.734 172.234 311.274 172.234 311.274L169.654 315.164C169.654 315.164 172.144 315.594 173.234 315.714C174.324 315.834 183.374 321.864 183.104 322.614C182.034 325.554 173.454 322.374 173.454 322.374L171.934 323.644C171.934 323.644 178.254 325.274 178.934 325.514C179.934 325.884 183.784 328.844 183.724 329.184C183.264 331.784 177.954 329.874 177.954 329.874L173.304 329.684C172.595 330.309 171.743 330.749 170.824 330.964" stroke="#263238" stroke-linecap="round" stroke-linejoin="round"/>
<path d="M166.824 306.824C166.824 306.824 163.824 309.344 163.054 310.074C162.284 310.804 162.474 313.124 162.474 313.124" stroke="#263238" stroke-linecap="round" stroke-linejoin="round"/>
<path d="M164.654 318.244C164.654 320.784 166.354 322.324 167.134 323.144C167.914 323.964 165.884 326.194 168.134 327.794" stroke="#263238" stroke-linecap="round" stroke-linejoin="round"/>
<path d="M312.774 398.754C306.424 400.484 299.524 389.324 291.104 377.144C285.544 369.144 279.324 360.614 272.174 355.144C271.604 354.714 271.024 354.294 270.444 353.894L274.624 332.894C283.304 337.444 288.684 344.734 297.694 352.224C312.194 364.294 325.044 371.704 328.604 377.044C332.164 382.384 323.654 395.784 312.774 398.754Z" fill="white"/>
<path opacity="0.4" d="M291.104 377.134C285.544 369.134 279.324 360.604 272.174 355.134C273.116 355.182 274.058 355.04 274.944 354.714C274.944 354.714 286.244 363.884 291.104 377.134Z" fill="#623FF0"/>
<path d="M312.774 398.754C306.424 400.484 299.524 389.324 291.104 377.144C285.544 369.144 279.324 360.614 272.174 355.144C271.604 354.714 271.024 354.294 270.444 353.894L274.624 332.894C283.304 337.444 288.684 344.734 297.694 352.224C312.194 364.294 325.044 371.704 328.604 377.044C332.164 382.384 323.654 395.784 312.774 398.754Z" stroke="#263238" stroke-linecap="round" stroke-linejoin="round"/>
<path d="M276.964 353.064C276.53 353.84 275.814 354.42 274.964 354.684C274.738 354.773 274.508 354.849 274.274 354.914H274.084C267.374 356.664 252.274 353.024 252.274 353.024C252.274 353.024 242.384 348.324 241.784 347.214C241.366 346.335 240.995 345.433 240.674 344.514L240.404 343.724C240.404 343.724 236.844 341.724 236.404 340.164C235.964 338.604 235.214 338.164 237.404 337.884C239.594 337.604 251.404 337.884 251.404 337.884L238.554 332.644C238.554 332.644 230.044 328.354 229.254 326.844C228.464 325.334 227.474 324.334 231.824 324.934C236.174 325.534 245.674 328.294 245.674 328.294L253.164 329.884L245.724 326.714C245.724 326.714 231.084 324.944 233.854 320.394H242.164C246.872 320.602 251.554 321.197 256.164 322.174C258.584 322.914 274.584 332.854 274.584 332.854" fill="white"/>
<path opacity="0.4" d="M274.064 354.954C267.354 356.704 252.254 353.064 252.254 353.064C252.254 353.064 242.364 348.364 241.764 347.254C241.346 346.375 240.975 345.473 240.654 344.554L252.794 345.884C252.369 346.649 252.146 347.509 252.146 348.384C252.146 349.259 252.369 350.119 252.794 350.884C254.144 353.314 269.524 355.774 274.064 354.954Z" fill="#623FF0"/>
<path d="M276.964 353.064C276.53 353.84 275.814 354.42 274.964 354.684C274.738 354.773 274.508 354.849 274.274 354.914H274.084C267.374 356.664 252.274 353.024 252.274 353.024C252.274 353.024 242.384 348.324 241.784 347.214C241.366 346.335 240.995 345.433 240.674 344.514L240.404 343.724C240.404 343.724 236.844 341.724 236.404 340.164C235.964 338.604 235.214 338.164 237.404 337.884C239.594 337.604 251.404 337.884 251.404 337.884L238.554 332.644C238.554 332.644 230.044 328.354 229.254 326.844C228.464 325.334 227.474 324.334 231.824 324.934C236.174 325.534 245.674 328.294 245.674 328.294L253.164 329.884L245.724 326.714C245.724 326.714 231.084 324.944 233.854 320.394H242.164C246.872 320.602 251.554 321.197 256.164 322.174C258.584 322.914 274.584 332.854 274.584 332.854" stroke="#263238" stroke-linecap="round" stroke-linejoin="round"/>
<path d="M240.384 343.764L254.994 345.914" stroke="#263238" stroke-linecap="round" stroke-linejoin="round"/>
<path d="M94.7439 388.504L131.364 399.504L198.364 384.214C198.364 384.214 157.444 372.594 157.064 372.884C156.684 373.174 94.7439 388.504 94.7439 388.504Z" fill="#623FF0"/>
<path opacity="0.3" d="M94.7439 388.504L131.364 399.504L198.364 384.214C198.364 384.214 157.444 372.594 157.064 372.884C156.684 373.174 94.7439 388.504 94.7439 388.504Z" fill="black" fill-opacity="0.7"/>
<path d="M94.7439 388.504L131.364 399.504L198.364 384.214C198.364 384.214 157.444 372.594 157.064 372.884C156.684 373.174 94.7439 388.504 94.7439 388.504Z" stroke="#263238" stroke-linecap="round" stroke-linejoin="round"/>
<path d="M95.2738 375.604C92.7038 375.784 92.0638 385.044 94.7438 388.504L153.904 376.224L158.644 365.004L95.2738 375.604Z" fill="#623FF0"/>
<path opacity="0.3" d="M95.2738 375.604C92.7038 375.784 92.0638 385.044 94.7438 388.504L153.904 376.224L158.644 365.004L95.2738 375.604Z" fill="black" fill-opacity="0.7"/>
<path d="M95.2738 375.604C92.7038 375.784 92.0638 385.044 94.7438 388.504L153.904 376.224L158.644 365.004L95.2738 375.604Z" stroke="#263238" stroke-linecap="round" stroke-linejoin="round"/>
<path d="M195.494 375.474C195.494 375.474 194.614 380.344 195.184 383.344L131.294 397.804L97.614 387.884C97.614 387.884 94.114 381.694 97.164 376.884L158.704 366.434L195.494 375.474Z" fill="white" stroke="#263238" stroke-linecap="round" stroke-linejoin="round"/>
<path d="M95.2739 375.604L158.644 365.004L197.994 374.974L131.814 388.164L95.2739 375.604Z" fill="#623FF0" stroke="#263238" stroke-linecap="round" stroke-linejoin="round"/>
<path d="M97.5239 381.524L131.034 391.504L185.884 380.464" stroke="#263238" stroke-linecap="round" stroke-linejoin="round"/>
<path d="M195.004 381.484L136.024 394.064" stroke="#263238" stroke-linecap="round" stroke-linejoin="round"/>
<path d="M98.314 385.454C98.824 385.504 123.574 393.124 123.574 393.124" stroke="#263238" stroke-linecap="round" stroke-linejoin="round"/>
<path d="M190.184 379.174L194.874 378.414" stroke="#263238" stroke-linecap="round" stroke-linejoin="round"/>
<path d="M129.944 394.974L127.454 394.414" stroke="#263238" stroke-linecap="round" stroke-linejoin="round"/>
<path d="M97.1639 376.884C98.4753 378.395 99.2341 380.307 99.3159 382.305C99.3977 384.304 98.7975 386.271 97.6139 387.884C96.5183 386.276 95.8954 384.393 95.8158 382.449C95.7363 380.504 96.2033 378.577 97.1639 376.884Z" fill="#263238"/>
<path opacity="0.3" d="M97.1639 376.884C98.4753 378.395 99.2341 380.307 99.3159 382.305C99.3977 384.304 98.7975 386.271 97.6139 387.884C96.5183 386.276 95.8954 384.393 95.8158 382.449C95.7363 380.504 96.2033 378.577 97.1639 376.884Z" fill="white" fill-opacity="0.7"/>
<path d="M97.1639 376.884C98.4753 378.395 99.2341 380.307 99.3159 382.305C99.3977 384.304 98.7975 386.271 97.6139 387.884C96.5183 386.276 95.8954 384.393 95.8158 382.449C95.7363 380.504 96.2033 378.577 97.1639 376.884Z" stroke="#263238" stroke-linecap="round" stroke-linejoin="round"/>
<path d="M234.034 391.504L297.984 394.124L291.754 416.134L213.084 413.134L234.034 391.504Z" fill="white"/>
<path opacity="0.4" d="M234.034 391.504L297.984 394.124L291.754 416.134L213.084 413.134L234.034 391.504Z" fill="#623FF0"/>
<path d="M234.034 391.504L297.984 394.124L291.754 416.134L213.084 413.134L234.034 391.504Z" stroke="#263238" stroke-linecap="round" stroke-linejoin="round"/>
</svg>
